<svg width="96" height="101" viewBox="0 0 96 101" fill="none" xmlns="http://www.w3.org/2000/svg">
<path d="M72.9678 27.4972C90.7952 12.5735 97.6155 5.01034 94.3741 3.79484C92.6859 3.18709 91.9431 3.32208 88.9719 4.74017C83.232 7.57633 62.366 25.4039 62.366 27.4972C62.366 30.4009 69.3889 30.4685 72.9678 27.4972Z" fill="#00796B"/>
<path d="M26.1712 28.0375C28.3996 26.5519 28.2646 26.2818 19.621 16.8954C15.0291 11.8305 11.2478 8.65668 8.47921 7.44118C4.69765 5.75299 2.87434 8.04907 4.35995 9.93984C17.055 26.2818 22.3221 30.6035 26.1712 28.0375Z" fill="#00796B"/>
<path d="M86.2708 50.0516C82.1516 48.8361 61.0836 42.1508 59.5304 41.5431C58.7876 41.273 58.2474 39.9224 57.9773 37.6265C55.7489 20.4744 52.2368 2.84924 50.6836 0.890933C49.5356 -0.594678 45.619 -0.121984 44.5386 1.56621C43.4581 3.25441 38.4611 20.3393 35.4899 32.7645L33.5322 40.8678C-4.82381 53.0228 -6.9173 52.7527 10.4373 58.0874L25.7665 62.8143C34.4776 65.5154 34.6795 65.5823 35.1522 67.7432C35.8275 70.8494 40.2168 85.9763 41.905 93.2018C45.484 108.733 52.7777 99.1443 59.1928 70.2424L60.6784 63.6246C61.4887 63.4896 66.6202 63.0169 88.7693 58.2224C93.8339 57.0745 92.3483 51.8073 86.2708 50.0516ZM76.6818 53.3604C76.1416 53.8331 61.353 57.4121 58.4493 57.4121C54.9379 57.4121 54.1275 59.1003 50.1434 74.9693C47.5098 85.4361 47.3079 85.638 45.8223 79.5605C43.999 71.9299 40.2843 63.0169 39.8116 60.9235C39.4065 59.0328 35.6249 57.6822 20.9714 54.1708C13.6112 52.415 12.4632 51.8073 15.2315 50.997C18.6755 49.984 35.2198 44.5818 37.1105 44.5818C38.9338 44.5818 40.4869 43.2313 41.0271 41.2054L46.2943 20.677C47.2397 17.098 47.2404 17.098 49.874 31.0763C52.9127 46.8102 52.5744 46.1343 57.4364 47.1472C63.5139 48.4302 77.2896 52.8202 76.6818 53.3604Z" fill="#00796B"/>
<path d="M64.3918 71.3228C64.3918 72.8084 82.2192 90.8384 84.7177 91.8513C89.9849 94.0122 91.3354 91.1753 87.1487 86.651C75.8716 74.2934 64.3918 66.5959 64.3918 71.3228Z" fill="#00796B"/>
<path d="M12.3957 75.6446C-0.569634 84.4232 -2.05531 86.449 4.42735 86.449C7.60116 86.449 27.6566 72.5383 27.0489 70.715C26.1035 67.8789 21.5791 69.3645 12.3957 75.6446Z" fill="#00796B"/>
</svg>
