<svg width="36" height="53" viewBox="0 0 36 53" fill="none" xmlns="http://www.w3.org/2000/svg">
<path d="M31.5312 17.4811C32.5117 16.9297 31.1834 14.7143 25.9007 8.02227C20.304 0.942065 18.8117 -0.416119 17.9314 0.606911C16.738 2.02866 29.9225 18.3319 31.5312 17.4811Z" fill="#00796B"/>
<path d="M2.36179 44.6343C4.21646 47.4434 4.93648 47.4866 12.3129 45.2477C19.9342 42.9432 21.2443 42.251 20.9307 40.787C20.3513 38.1348 18.1375 38.0982 8.56866 40.4785C1.50998 42.2387 0.992864 42.561 2.36179 44.6343Z" fill="#00796B"/>
<path d="M1.76609 22.7277C3.07294 24.7652 3.96 25.2359 7.92648 26.0361C19.7016 28.3647 27.9279 30.9621 25.3046 27.0471C24.2448 25.442 22.1004 24.7833 8.41745 21.6015C0.84519 19.8784 0.03558 19.9904 1.76609 22.7277Z" fill="#00796B"/>
</svg>
