<svg width="69" height="69" viewBox="0 0 69 69" fill="none" xmlns="http://www.w3.org/2000/svg">
<path d="M34.2919 68.507C15.5541 68.7192 -0.0693609 53.396 0.000231598 34.4932C0.0669244 15.433 15.5034 -0.0173129 34.5543 1.45602e-05C53.4023 0.0216739 68.9156 15.6092 68.9156 34.4845C68.9229 53.0133 53.8648 68.6629 34.2919 68.507Z" fill="#2B474D"/>
<path d="M35.275 9.99369C31.3604 10.255 27.7111 11.2543 25.0507 14.3256C22.8063 16.9247 22.3279 19.9238 23.6356 23.1467C23.7565 23.4863 23.9124 23.8124 24.101 24.1199C25.271 25.8281 25.2725 27.6648 24.7868 29.5795C24.6186 30.2423 24.3141 30.9743 24.9608 31.5375C25.6074 32.1006 26.2946 31.6819 26.9369 31.4523C27.962 31.0913 27.9518 31.0725 28.5651 31.962C29.094 32.7662 29.6752 33.535 30.3049 34.2637C31.7547 35.8881 33.8092 36.1567 35.6476 34.9726C35.865 34.8283 36.0825 34.6839 36.387 34.4788C36.358 35.8015 36.3768 36.9884 35.4794 38.0425C34.1223 39.6308 32.7638 41.2336 31.5489 42.9433C29.9946 45.1294 28.7478 47.4629 28.1446 50.2093C27.0718 48.8491 25.9568 47.6939 24.5635 46.7308C25.7234 46.055 26.7499 45.3229 27.4632 44.2371C28.6376 42.4624 29.0421 40.6344 27.8402 38.7053C27.6096 38.3342 27.6763 37.9833 27.759 37.6006C28.017 36.4383 27.7372 36.0643 26.5745 36.0787C25.8843 36.0874 25.2812 35.8968 24.7941 35.4203C24.241 34.8798 23.5702 34.4736 22.8339 34.2333C22.6726 34.1897 22.5273 34.1007 22.4155 33.9771C22.3036 33.8534 22.2299 33.7002 22.2032 33.5359C22.0831 32.9703 21.8461 32.4358 21.5073 31.9663C20.9563 31.227 20.2024 31.279 19.808 32.1107C19.3861 32.9771 18.5974 33.3222 17.7652 33.5836C16.6851 33.9243 15.5904 34.2218 14.6567 34.899C13.1895 35.956 12.4254 37.4332 12.2428 39.1645C11.9122 42.2892 12.9474 44.8349 15.7137 46.5431C15.9515 46.6875 16.2313 46.7467 15.9631 47.1625C13.8187 50.4836 13.7723 54.0848 14.5915 57.7915C14.9175 59.152 15.3276 60.4912 15.8195 61.8013C14.6988 61.1212 13.6129 60.4166 12.6676 59.5155C12.1166 58.7113 11.2815 58.1914 10.6378 57.481C8.11216 54.7216 6.07368 51.6633 4.63253 48.2036C3.55878 45.6752 2.81193 43.0211 2.40993 40.3052C2.05906 37.8144 1.85174 35.3033 2.18375 32.762C2.42297 30.9238 2.67235 29.0943 3.10295 27.2937C4.31937 22.211 6.7841 17.7636 10.1202 13.7682C12.4631 10.9611 15.2903 8.74756 18.4582 6.93106C20.7159 5.62648 23.1302 4.61151 25.6437 3.91031C33.4232 1.72919 41.7409 2.52988 48.957 6.15453C56.173 9.77918 61.7638 15.9648 64.627 23.4918C65.6985 26.2816 66.3814 29.2043 66.6568 32.1786C66.9468 35.1445 66.7496 38.0728 66.2842 41.0084C65.8078 44.0264 64.8792 46.9561 63.5295 49.6995C62.3972 52.0099 61.1184 54.2451 59.3844 56.1872C59.0407 56.5555 58.7388 56.9603 58.484 57.3944C58.3434 57.6194 58.1426 57.8008 57.9041 57.9185C58.0523 56.7212 58.1143 55.5148 58.0897 54.3086C58.0012 47.9451 55.7815 42.3498 51.8728 37.3826C50.0083 35.0131 47.9016 32.8616 45.7472 30.7563C45.4384 30.4545 45.4456 30.3506 45.8269 30.1181C49.063 28.1456 50.0866 24.7018 48.4917 21.258C48.1197 20.4207 47.6263 19.6423 47.0274 18.9476C46.6562 18.5289 46.7737 18.36 47.1927 18.1217C48.3859 17.4387 49.3921 16.5492 49.9851 15.2843C50.9695 13.1877 50.8825 11.1575 49.3341 9.36412C47.0883 6.76501 44.2002 5.77879 40.8308 6.40835C38.9068 6.77512 37.4961 7.89995 36.6958 9.70345C36.2478 9.92438 35.7853 10.0731 35.275 9.99369Z" fill="#F8CEA4"/>
<path d="M44.5003 56.4724C46.3178 54.1857 47.5948 51.5206 48.2365 48.6751C48.2901 48.4411 48.3235 48.2043 48.367 47.9675C48.4322 47.6181 48.367 47.312 47.9668 47.26C47.6058 47.2123 47.4956 47.4795 47.4304 47.7986C47.0913 49.5195 46.5218 51.1872 45.737 52.7571C43.6014 56.9634 40.1362 59.3704 35.5315 60.2382C34.3418 60.4378 33.1392 60.5527 31.933 60.5819C31.4517 60.6036 31.3241 60.4375 31.3096 59.9827C31.2762 58.8593 31.2588 58.8766 32.3361 58.4838C34.8298 57.5742 36.7479 55.9555 38.1354 53.7087C38.442 53.2431 38.6218 52.7063 38.6574 52.1507C38.6781 51.9704 38.6442 51.7881 38.5599 51.6273C38.4757 51.4664 38.345 51.3344 38.1847 51.2482C37.8136 51.0374 37.4787 51.1255 37.1814 51.3724C35.4315 52.8163 33.3553 53.4286 31.1574 53.7968C30.415 53.921 30.0221 53.7838 29.8394 53.0632C29.7717 52.8582 29.6878 52.6588 29.5886 52.4669C29.7235 51.7449 30.228 51.2323 30.6137 50.6648C32.2592 48.2477 34.2919 46.1539 36.4768 44.2378C38.2021 42.726 40.0695 41.3687 41.9456 40.0287C43.2171 39.1219 44.6278 38.5241 45.9631 37.766C46.778 37.3025 47.7479 37.2115 48.6541 36.9834C49.0474 36.8883 49.4249 36.7371 49.7748 36.5343C51.9867 38.8503 53.7555 41.549 54.9942 44.4977C56.9283 49.0491 57.5227 53.7722 56.8587 58.6643C56.8479 58.879 56.7526 59.0808 56.5934 59.226C54.8681 60.6931 53.0717 62.0591 51.0637 63.1247C50.5447 62.846 50.8999 62.5601 51.0463 62.2583C51.7437 60.8332 51.9162 59.3401 51.2304 57.9019C50.5838 56.5475 49.4805 55.7663 47.861 55.7981C46.8794 55.8169 45.9443 55.8703 45.1063 56.4334C44.9222 56.5591 44.7105 56.6471 44.5003 56.4724Z" fill="#A7CACF"/>
<path d="M58.4739 57.3948C58.5667 56.8793 58.9219 56.4909 59.2249 56.1169C60.6907 54.3062 61.8796 52.3366 62.9815 50.2876C64.1732 48.0842 64.9967 45.7551 65.6231 43.374C66.0783 41.6629 66.2987 39.8738 66.4582 38.0877C66.5669 36.8632 66.5814 35.6445 66.5684 34.4229C66.5466 32.4346 66.2625 30.4766 65.8695 28.5258C65.372 26.0929 64.5936 23.7254 63.5498 21.4707C62.6904 19.6067 61.6477 17.832 60.437 16.1728C59.2093 14.4897 57.8196 12.9301 56.2875 11.516C54.3946 9.74923 52.2848 8.2282 50.0083 6.98923C47.81 5.77533 45.4839 4.80683 43.0722 4.10133C41.1207 3.5454 39.1127 3.27972 37.096 3.04868C35.7298 2.90548 34.3543 2.87168 32.9828 2.94761C31.3827 3.01814 29.7914 3.22295 28.2258 3.55984C26.4236 3.92603 24.6513 4.42558 22.9238 5.05434C21.0425 5.7592 19.2343 6.64415 17.5245 7.69677C15.2454 9.10442 13.1533 10.7922 11.2975 12.7203C10.3014 13.757 9.44747 14.9122 8.59786 16.0674C7.72071 17.2601 6.85805 18.473 6.20852 19.8043C5.19363 21.8735 4.20339 23.9398 3.62055 26.2025C3.22185 27.7519 2.82749 29.2998 2.62306 30.8766C2.2838 33.4757 2.05472 36.0864 2.43893 38.736C2.63901 40.1063 2.83909 41.4795 3.11021 42.8311C3.33669 43.8529 3.62476 44.8602 3.97286 45.8475C4.69779 48.0394 5.58654 50.1591 6.84065 52.1142C8.18321 54.2051 9.56201 56.2685 11.3685 58.0056C11.7324 58.355 12.105 58.6943 12.4704 59.0438C12.6009 59.1694 12.7908 59.2777 12.6676 59.5131C8.63411 56.2107 5.72427 52.0767 3.69594 47.3203C-2.03093 33.8915 1.87929 18.1755 13.2214 8.78696C18.1509 4.70345 23.7821 2.10867 30.1367 1.38525C41.8254 0.0553663 51.7046 3.83275 59.5134 12.5701C65.8275 19.6383 68.4923 28.0565 67.6862 37.4711C67.0947 44.3876 64.4835 50.5331 59.931 55.8252C59.4656 56.3652 58.9538 56.8721 58.4739 57.3948Z" fill="#F9E3C3"/>
<path d="M24.1344 18.542C27.6053 22.6269 32.3071 24.7091 37.196 26.3263C39.8318 27.1927 41.9674 28.6251 43.932 30.4604C45.479 31.9043 47.0056 33.3671 48.4337 35.0132C44.7018 35.2283 42.0399 37.5964 39.1026 39.345C37.0539 40.5623 35.1068 41.9442 33.1133 43.2567C32.8887 43.4215 32.6228 43.5215 32.3448 43.5455C32.7522 43.004 33.1481 42.4524 33.57 41.9225C34.5428 40.698 35.5997 39.5443 36.5276 38.2794C37.1143 37.5101 37.427 36.5682 37.4164 35.6023C37.4164 34.8572 37.4483 34.1121 37.47 33.3671C37.4787 33.0942 37.4845 32.827 37.1801 32.6985C36.8756 32.57 36.6581 32.7057 36.4551 32.8935C36.1927 33.1404 35.9549 33.4147 35.6925 33.6631C34.1252 35.1417 32.2796 35.0594 30.9196 33.4104C30.186 32.5209 29.5075 31.5823 28.8406 30.6409C28.439 30.0734 27.9837 29.9276 27.353 30.2221C26.9616 30.4041 26.5469 30.5384 26.141 30.6914C25.706 30.8546 25.4972 30.8243 25.6509 30.2582C25.7946 29.6756 25.9064 29.0856 25.9858 28.4908C26.2352 26.9025 26.0438 25.4253 25.1609 24.0001C24.2779 22.575 23.8082 20.9765 23.9821 19.2553C23.9981 19.0878 24.0097 18.9203 24.0358 18.7543C24.0603 18.6799 24.0934 18.6087 24.1344 18.542Z" fill="#F8CEA4"/>
<path d="M44.5003 56.4726C44.5728 56.4653 44.667 56.487 44.7134 56.4494C45.7283 55.6105 46.9317 55.6076 48.1713 55.5744C49.0325 55.5513 49.8807 55.8733 50.3301 56.3166C51.0145 56.9924 51.8249 57.7894 51.8046 58.9489C51.7872 59.9481 51.8742 60.9502 51.5146 61.922C51.4354 62.1191 51.3165 62.298 51.1652 62.4476C50.9681 62.6613 50.8231 62.8592 51.0623 63.1277C47.8349 65.0381 44.3655 66.3261 40.6568 66.8416C34.7632 67.6589 29.1755 66.6077 23.9836 63.6952C21.8105 62.5079 19.9554 60.8183 18.5742 58.7684C18.8279 58.6327 18.9642 58.8161 19.1165 58.8883C23.4926 60.9748 28.342 61.881 33.1799 61.5163C37.5585 61.1986 41.4614 59.7922 44.5003 56.4726Z" fill="#9CC3A3"/>
<path d="M30.9094 11.8074C31.9954 11.4074 33.1248 11.2096 34.389 11.0508C33.9541 12.2406 34.0918 13.3755 34.5935 14.4253C35.9056 17.1789 38.2587 18.5911 41.1468 19.225C42.5212 19.5251 43.9512 19.4543 45.289 19.02C45.4803 18.9593 45.6558 18.9131 45.8211 19.0835C47.2405 20.5419 48.8367 23.3027 48.0292 25.9668C47.5232 27.6404 46.3589 28.7248 44.8395 29.506C44.5408 29.6605 44.3944 29.4987 44.2132 29.3442C43.6651 28.8764 43.0838 28.4389 42.5763 27.9292C41.0815 26.4231 39.0677 26.0029 37.1872 25.2954C34.0367 24.1085 30.8833 22.9201 28.1794 20.8365C27.1645 19.4387 27.0093 17.9009 27.4544 16.2765C27.8227 14.9046 28.563 13.6601 29.5944 12.6796C29.9902 12.2998 30.56 12.2276 30.9094 11.8074Z" fill="#F19A7C"/>
<path d="M37.5759 52.4163C36.8814 54.2227 35.6113 55.5252 34.0339 56.559C30.1701 59.0932 23.4588 58.6831 20.1401 54.5245C19.9052 54.2357 19.6384 53.817 19.2049 54.1895C18.7932 54.5447 19.1194 54.897 19.3687 55.1829C21.6189 57.7618 24.478 59.0397 27.8938 59.1018C28.474 59.1283 29.0553 59.1148 29.6336 59.0614C30.1976 58.9935 30.3093 59.2058 30.3586 59.7227C30.4136 60.387 30.3107 60.6079 29.5452 60.5617C26.0511 60.3523 22.773 59.3733 19.5935 57.9828C19.2442 57.8185 18.8861 57.6739 18.5206 57.5496C17.7855 57.3243 17.3259 57.7734 17.5332 58.5199C17.7406 59.2664 18.1668 59.8642 18.6409 60.4433C21.2129 63.5896 24.5954 65.4884 28.4085 66.7187C28.6129 66.7837 28.8174 66.8501 29.0203 66.918C29.0348 66.918 29.0421 66.9526 29.0928 67.0421C27.5288 66.8268 25.9843 66.4889 24.4736 66.0314C22.3754 65.3936 20.3462 64.549 18.4162 63.5102C17.7724 63.1958 17.2735 62.6483 17.0214 61.9796C15.8616 59.073 15.0149 56.1172 15.1367 52.9535C15.2 51.0703 15.7768 49.2399 16.8054 47.6585C17.033 47.3047 17.2404 47.2585 17.6217 47.3697C19.3542 47.8435 21.1858 47.8215 22.9064 47.3062C23.0859 47.2467 23.2776 47.2334 23.4636 47.2675C23.6497 47.3015 23.824 47.3819 23.9705 47.5011C26.1062 49.01 27.6734 50.9883 28.8667 53.2885C29.1218 53.7809 29.0682 53.9339 28.4723 53.9065C26.4468 53.8104 24.4494 53.3957 22.5541 52.6777C22.396 52.6185 22.2423 52.5477 22.0857 52.4871C21.7958 52.3759 21.5363 52.4264 21.4 52.7008C21.2405 53.0257 21.4203 53.2683 21.7189 53.3939C22.6497 53.7897 23.6106 54.1113 24.5925 54.3556C28.0287 55.2089 31.4198 55.1411 34.7632 53.8978C35.7526 53.5085 36.6959 53.0117 37.5759 52.4163Z" fill="#F9CFA3"/>
<path d="M17.8101 46.2909C15.5802 45.8823 13.5055 43.6066 13.2315 41.2963C13.1039 40.2105 13.114 39.1463 13.4765 38.0936C14.0883 36.3176 15.399 35.3414 17.1344 34.8187C18.4045 34.4375 19.6934 34.0968 20.5706 32.9705C20.8605 32.5893 20.9577 33.0253 21.0374 33.1856C21.4181 33.9317 21.5238 34.7872 21.3359 35.6029C21.148 36.4185 20.6786 37.1427 20.0095 37.6489C19.763 37.8409 19.5006 38.0128 19.2469 38.1961C18.0667 39.0466 18.0754 40.1642 19.2817 41.0046C19.8311 41.3887 20.414 41.6977 20.6547 42.4139C21.0635 43.6341 20.6836 44.2651 19.3947 44.3633C18.2392 44.4456 18.0449 44.6824 17.8101 46.2909Z" fill="#F19B7B"/>
<path d="M20.0979 46.6616C19.8813 46.6811 19.6635 46.6811 19.4469 46.6616C19.2062 46.6168 18.7713 46.8305 18.7959 46.354C18.8177 45.9439 18.7133 45.4169 19.4295 45.3577C20.5285 45.2667 21.5071 44.8913 21.7203 43.6524C21.9276 42.4452 21.4709 41.4388 20.5154 40.6677C20.311 40.5031 20.0805 40.3789 19.8601 40.2201C19.2033 39.7551 19.1787 39.3985 19.8717 38.9711C20.8446 38.3689 21.6115 37.608 22.0465 36.5496C22.1416 36.3292 22.2225 36.103 22.2886 35.8723C22.5046 35.0839 22.5423 35.0652 23.26 35.5215C23.9081 35.9344 24.4706 36.4802 25.1984 36.769C25.4 36.8485 25.6073 36.9741 25.8117 36.9712C26.6294 36.964 27.0093 37.208 26.612 38.0801C26.4975 38.3285 26.7106 38.5812 26.8266 38.818C28.0619 41.3411 27.5361 43.4338 25.2492 45.0963C23.7138 46.2067 21.9667 46.6399 20.0979 46.6616Z" fill="#F9CFA4"/>
<path d="M44.3363 8.83474C45.7441 9.67079 46.4575 10.9097 46.2661 12.5298C46.0689 14.1961 45.1483 15.4177 43.5563 16.0372C42.7178 16.3771 41.795 16.4533 40.9117 16.2556C40.0284 16.0579 39.2271 15.5957 38.6153 14.9311C38.0977 14.1427 37.6975 13.3312 37.6569 12.345C37.583 10.5761 39.0821 8.39866 41.3526 8.30192C42.4254 8.25427 43.3997 8.3308 44.3363 8.83474Z" fill="#F1997B"/>
<path d="M49.769 36.5316C49.7399 36.6851 49.6626 36.8253 49.5481 36.932C49.4337 37.0387 49.2881 37.1063 49.1325 37.1251C47.4811 37.3518 45.9747 37.9424 44.493 38.7135C42.9518 39.5221 41.6006 40.5762 40.1884 41.5609C37.5149 43.4251 35.1343 45.6141 32.9479 48.0067C31.8555 49.2169 30.8775 50.5249 30.0265 51.9141C29.89 52.1062 29.7408 52.289 29.5799 52.4613C29.0348 51.8318 28.8666 51.1387 29.1522 50.3301C29.3117 49.8796 29.3784 49.3987 29.5118 48.9381C30.0265 47.1721 30.8645 45.7614 32.5782 44.7347C36.4855 42.4028 40.1652 39.7026 44.1262 37.4457C45.6065 36.6024 47.1013 35.8371 48.9005 36.1158C49.247 36.175 49.5747 36.1981 49.769 36.5316Z" fill="#F8CFA5"/>
<path d="M35.275 9.99329C35.694 9.63086 36.2043 9.71605 36.6958 9.7045C35.6084 13.1844 37.2482 16.2976 40.6031 17.125C44.2278 18.0217 47.6247 15.0803 47.1651 11.4011C46.9665 9.81279 45.9516 8.72694 44.7004 7.83746C44.5076 7.70173 44.2973 7.59055 43.9276 7.36818C45.9705 7.74216 47.5319 8.61287 48.6962 10.0597C50.3794 12.1491 49.7763 15.1006 47.3913 16.8752C43.9305 19.4469 38.5473 18.5949 36.0492 15.0673C35.0923 13.7201 34.7095 12.2935 35.6142 10.7658C35.8912 10.2893 35.5142 10.194 35.275 9.99329Z" fill="#A6C8CF"/>
<path d="M30.9095 11.8074C31.0544 12.1496 30.6934 12.1554 30.5673 12.2305C29.0914 13.0969 28.2794 14.4484 27.7358 16.0079C27.1645 17.6526 27.3776 19.2106 28.22 20.708C28.2345 20.7354 28.1939 20.7932 28.1794 20.8365C26.816 19.9763 25.6361 18.8571 24.707 17.5428C24.4693 17.2064 24.5432 16.9248 24.707 16.6115C25.5479 14.9466 26.8586 13.7452 28.4694 12.85C29.2401 12.4107 30.0588 12.0609 30.9095 11.8074Z" fill="#F8CFA4"/>
<path d="M44.3365 8.83465C43.0498 8.34858 41.6357 8.31092 40.3248 8.72779C38.5386 9.28949 37.4251 11.4626 37.9876 13.2531C38.1645 13.8221 38.4037 14.3722 38.6154 14.931C36.9626 13.3427 36.8408 10.5891 38.3385 8.87941C38.6292 8.54233 38.9892 8.27134 39.3942 8.08475C39.7991 7.89817 40.2396 7.80035 40.6858 7.79789C42.0109 7.74591 43.2491 8.03325 44.3365 8.83465Z" fill="#F6D2A5"/>
</svg>
