<svg width="193" height="69" viewBox="0 0 193 69" fill="none" xmlns="http://www.w3.org/2000/svg">
<path d="M34.2919 68.507C15.5541 68.7192 -0.0693609 53.396 0.000231598 34.4932C0.0669244 15.433 15.5034 -0.0173129 34.5543 1.45602e-05C53.4023 0.0216739 68.9156 15.6092 68.9156 34.4845C68.9229 53.0133 53.8648 68.6629 34.2919 68.507Z" fill="#2B474D"/>
<path d="M35.275 9.99369C31.3604 10.255 27.7111 11.2543 25.0507 14.3256C22.8063 16.9247 22.3279 19.9238 23.6356 23.1467C23.7565 23.4863 23.9124 23.8124 24.101 24.1199C25.271 25.8281 25.2725 27.6648 24.7868 29.5795C24.6186 30.2423 24.3141 30.9743 24.9608 31.5375C25.6074 32.1006 26.2946 31.6819 26.9369 31.4523C27.962 31.0913 27.9518 31.0725 28.5651 31.962C29.094 32.7662 29.6752 33.535 30.3049 34.2637C31.7547 35.8881 33.8092 36.1567 35.6476 34.9726C35.865 34.8283 36.0825 34.6839 36.387 34.4788C36.358 35.8015 36.3768 36.9884 35.4794 38.0425C34.1223 39.6308 32.7638 41.2336 31.5489 42.9433C29.9946 45.1294 28.7478 47.4629 28.1446 50.2093C27.0718 48.8491 25.9568 47.6939 24.5635 46.7308C25.7234 46.055 26.7499 45.3229 27.4632 44.2371C28.6376 42.4624 29.0421 40.6344 27.8402 38.7053C27.6096 38.3342 27.6763 37.9833 27.759 37.6006C28.017 36.4383 27.7372 36.0643 26.5745 36.0787C25.8843 36.0874 25.2812 35.8968 24.7941 35.4203C24.241 34.8798 23.5702 34.4736 22.8339 34.2333C22.6726 34.1897 22.5273 34.1007 22.4155 33.9771C22.3036 33.8534 22.2299 33.7002 22.2032 33.5359C22.0831 32.9703 21.8461 32.4358 21.5073 31.9663C20.9563 31.227 20.2024 31.279 19.808 32.1107C19.3861 32.9771 18.5974 33.3222 17.7652 33.5836C16.6851 33.9243 15.5904 34.2218 14.6567 34.899C13.1895 35.956 12.4254 37.4332 12.2428 39.1645C11.9122 42.2892 12.9474 44.8349 15.7137 46.5431C15.9515 46.6875 16.2313 46.7467 15.9631 47.1625C13.8187 50.4836 13.7723 54.0848 14.5915 57.7915C14.9175 59.152 15.3276 60.4912 15.8195 61.8013C14.6988 61.1212 13.6129 60.4166 12.6676 59.5155C12.1166 58.7113 11.2815 58.1914 10.6378 57.481C8.11216 54.7216 6.07368 51.6633 4.63253 48.2036C3.55878 45.6752 2.81193 43.0211 2.40993 40.3052C2.05906 37.8144 1.85174 35.3033 2.18375 32.762C2.42297 30.9238 2.67235 29.0943 3.10295 27.2937C4.31937 22.211 6.7841 17.7636 10.1202 13.7682C12.4631 10.9611 15.2903 8.74756 18.4582 6.93106C20.7159 5.62648 23.1302 4.61151 25.6437 3.91031C33.4232 1.72919 41.7409 2.52988 48.957 6.15453C56.173 9.77918 61.7638 15.9648 64.627 23.4918C65.6985 26.2816 66.3814 29.2043 66.6568 32.1786C66.9468 35.1445 66.7496 38.0728 66.2842 41.0084C65.8078 44.0264 64.8792 46.9561 63.5295 49.6995C62.3972 52.0099 61.1184 54.2451 59.3844 56.1872C59.0407 56.5555 58.7388 56.9603 58.484 57.3944C58.3434 57.6194 58.1426 57.8008 57.9041 57.9185C58.0523 56.7212 58.1143 55.5148 58.0897 54.3086C58.0012 47.9451 55.7815 42.3498 51.8728 37.3826C50.0083 35.0131 47.9016 32.8616 45.7472 30.7563C45.4384 30.4545 45.4456 30.3506 45.8269 30.1181C49.063 28.1456 50.0866 24.7018 48.4917 21.258C48.1197 20.4207 47.6263 19.6423 47.0274 18.9476C46.6562 18.5289 46.7737 18.36 47.1927 18.1217C48.3859 17.4387 49.3921 16.5492 49.9851 15.2843C50.9695 13.1877 50.8825 11.1575 49.3341 9.36412C47.0883 6.76501 44.2002 5.77879 40.8308 6.40835C38.9068 6.77512 37.4961 7.89995 36.6958 9.70345C36.2478 9.92438 35.7853 10.0731 35.275 9.99369Z" fill="#F8CEA4"/>
<path d="M44.5003 56.4724C46.3178 54.1857 47.5948 51.5206 48.2365 48.6751C48.2901 48.4411 48.3235 48.2043 48.367 47.9675C48.4322 47.6181 48.367 47.312 47.9668 47.26C47.6058 47.2123 47.4956 47.4795 47.4304 47.7986C47.0913 49.5195 46.5218 51.1872 45.737 52.7571C43.6014 56.9634 40.1362 59.3704 35.5315 60.2382C34.3418 60.4378 33.1392 60.5527 31.933 60.5819C31.4517 60.6036 31.3241 60.4375 31.3096 59.9827C31.2762 58.8593 31.2588 58.8766 32.3361 58.4838C34.8298 57.5742 36.7479 55.9555 38.1354 53.7087C38.442 53.2431 38.6218 52.7063 38.6574 52.1507C38.6781 51.9704 38.6442 51.7881 38.5599 51.6273C38.4757 51.4664 38.345 51.3344 38.1847 51.2482C37.8136 51.0374 37.4787 51.1255 37.1814 51.3724C35.4315 52.8163 33.3553 53.4286 31.1574 53.7968C30.415 53.921 30.0221 53.7838 29.8394 53.0632C29.7717 52.8582 29.6878 52.6588 29.5886 52.4669C29.7235 51.7449 30.228 51.2323 30.6137 50.6648C32.2592 48.2477 34.2919 46.1539 36.4768 44.2378C38.2021 42.726 40.0695 41.3687 41.9456 40.0287C43.2171 39.1219 44.6278 38.5241 45.9631 37.766C46.778 37.3025 47.7479 37.2115 48.6541 36.9834C49.0474 36.8883 49.4249 36.7371 49.7748 36.5343C51.9867 38.8503 53.7555 41.549 54.9942 44.4977C56.9283 49.0491 57.5227 53.7722 56.8587 58.6643C56.8479 58.879 56.7526 59.0808 56.5934 59.226C54.8681 60.6931 53.0717 62.0591 51.0637 63.1247C50.5447 62.846 50.8999 62.5601 51.0463 62.2583C51.7437 60.8332 51.9162 59.3401 51.2304 57.9019C50.5838 56.5475 49.4805 55.7663 47.861 55.7981C46.8794 55.8169 45.9443 55.8703 45.1063 56.4334C44.9222 56.5591 44.7105 56.6471 44.5003 56.4724Z" fill="#A7CACF"/>
<path d="M58.4739 57.3948C58.5667 56.8793 58.9219 56.4909 59.2249 56.1169C60.6907 54.3062 61.8796 52.3366 62.9815 50.2876C64.1732 48.0842 64.9967 45.7551 65.6231 43.374C66.0783 41.6629 66.2987 39.8738 66.4582 38.0877C66.5669 36.8632 66.5814 35.6445 66.5684 34.4229C66.5466 32.4346 66.2625 30.4766 65.8695 28.5258C65.372 26.0929 64.5936 23.7254 63.5498 21.4707C62.6904 19.6067 61.6477 17.832 60.437 16.1728C59.2093 14.4897 57.8196 12.9301 56.2875 11.516C54.3946 9.74923 52.2848 8.2282 50.0083 6.98923C47.81 5.77533 45.4839 4.80683 43.0722 4.10133C41.1207 3.5454 39.1127 3.27972 37.096 3.04868C35.7298 2.90548 34.3543 2.87168 32.9828 2.94761C31.3827 3.01814 29.7914 3.22295 28.2258 3.55984C26.4236 3.92603 24.6513 4.42558 22.9238 5.05434C21.0425 5.7592 19.2343 6.64415 17.5245 7.69677C15.2454 9.10442 13.1533 10.7922 11.2975 12.7203C10.3014 13.757 9.44747 14.9122 8.59786 16.0674C7.72071 17.2601 6.85805 18.473 6.20852 19.8043C5.19363 21.8735 4.20339 23.9398 3.62055 26.2025C3.22185 27.7519 2.82749 29.2998 2.62306 30.8766C2.2838 33.4757 2.05472 36.0864 2.43893 38.736C2.63901 40.1063 2.83909 41.4795 3.11021 42.8311C3.33669 43.8529 3.62476 44.8602 3.97286 45.8475C4.69779 48.0394 5.58654 50.1591 6.84065 52.1142C8.18321 54.2051 9.56201 56.2685 11.3685 58.0056C11.7324 58.355 12.105 58.6943 12.4704 59.0438C12.6009 59.1694 12.7908 59.2777 12.6676 59.5131C8.63411 56.2107 5.72427 52.0767 3.69594 47.3203C-2.03093 33.8915 1.87929 18.1755 13.2214 8.78696C18.1509 4.70345 23.7821 2.10867 30.1367 1.38525C41.8254 0.0553663 51.7046 3.83275 59.5134 12.5701C65.8275 19.6383 68.4923 28.0565 67.6862 37.4711C67.0947 44.3876 64.4835 50.5331 59.931 55.8252C59.4656 56.3652 58.9538 56.8721 58.4739 57.3948Z" fill="#F9E3C3"/>
<path d="M24.1344 18.542C27.6053 22.6269 32.3071 24.7091 37.196 26.3263C39.8318 27.1927 41.9674 28.6251 43.932 30.4604C45.479 31.9043 47.0056 33.3671 48.4337 35.0132C44.7018 35.2283 42.0399 37.5964 39.1026 39.345C37.0539 40.5623 35.1068 41.9442 33.1133 43.2567C32.8887 43.4215 32.6228 43.5215 32.3448 43.5455C32.7522 43.004 33.1481 42.4524 33.57 41.9225C34.5428 40.698 35.5997 39.5443 36.5276 38.2794C37.1143 37.5101 37.427 36.5682 37.4164 35.6023C37.4164 34.8572 37.4483 34.1121 37.47 33.3671C37.4787 33.0942 37.4845 32.827 37.1801 32.6985C36.8756 32.57 36.6581 32.7057 36.4551 32.8935C36.1927 33.1404 35.9549 33.4147 35.6925 33.6631C34.1252 35.1417 32.2796 35.0594 30.9196 33.4104C30.186 32.5209 29.5075 31.5823 28.8406 30.6409C28.439 30.0734 27.9837 29.9276 27.353 30.2221C26.9616 30.4041 26.5469 30.5384 26.141 30.6914C25.706 30.8546 25.4972 30.8243 25.6509 30.2582C25.7946 29.6756 25.9064 29.0856 25.9858 28.4908C26.2352 26.9025 26.0438 25.4253 25.1609 24.0001C24.2779 22.575 23.8082 20.9765 23.9821 19.2553C23.9981 19.0878 24.0097 18.9203 24.0358 18.7543C24.0603 18.6799 24.0934 18.6087 24.1344 18.542Z" fill="#F8CEA4"/>
<path d="M44.5003 56.4726C44.5728 56.4653 44.667 56.487 44.7134 56.4494C45.7283 55.6105 46.9317 55.6076 48.1713 55.5744C49.0325 55.5513 49.8807 55.8733 50.3301 56.3166C51.0145 56.9924 51.8249 57.7894 51.8046 58.9489C51.7872 59.9481 51.8742 60.9502 51.5146 61.922C51.4354 62.1191 51.3165 62.298 51.1652 62.4476C50.9681 62.6613 50.8231 62.8592 51.0623 63.1277C47.8349 65.0381 44.3655 66.3261 40.6568 66.8416C34.7632 67.6589 29.1755 66.6077 23.9836 63.6952C21.8105 62.5079 19.9554 60.8183 18.5742 58.7684C18.8279 58.6327 18.9642 58.8161 19.1165 58.8883C23.4926 60.9748 28.342 61.881 33.1799 61.5163C37.5585 61.1986 41.4614 59.7922 44.5003 56.4726Z" fill="#9CC3A3"/>
<path d="M30.9094 11.8074C31.9954 11.4074 33.1248 11.2096 34.389 11.0508C33.9541 12.2406 34.0918 13.3755 34.5935 14.4253C35.9056 17.1789 38.2587 18.5911 41.1468 19.225C42.5212 19.5251 43.9512 19.4543 45.289 19.02C45.4803 18.9593 45.6558 18.9131 45.8211 19.0835C47.2405 20.5419 48.8367 23.3027 48.0292 25.9668C47.5232 27.6404 46.3589 28.7248 44.8395 29.506C44.5408 29.6605 44.3944 29.4987 44.2132 29.3442C43.6651 28.8764 43.0838 28.4389 42.5763 27.9292C41.0815 26.4231 39.0677 26.0029 37.1872 25.2954C34.0367 24.1085 30.8833 22.9201 28.1794 20.8365C27.1645 19.4387 27.0093 17.9009 27.4544 16.2765C27.8227 14.9046 28.563 13.6601 29.5944 12.6796C29.9902 12.2998 30.56 12.2276 30.9094 11.8074Z" fill="#F19A7C"/>
<path d="M37.5759 52.4163C36.8814 54.2227 35.6113 55.5252 34.0339 56.559C30.1701 59.0932 23.4588 58.6831 20.1401 54.5245C19.9052 54.2357 19.6384 53.817 19.2049 54.1895C18.7932 54.5447 19.1194 54.897 19.3687 55.1829C21.6189 57.7618 24.478 59.0397 27.8938 59.1018C28.474 59.1283 29.0553 59.1148 29.6336 59.0614C30.1976 58.9935 30.3093 59.2058 30.3586 59.7227C30.4136 60.387 30.3107 60.6079 29.5452 60.5617C26.0511 60.3523 22.773 59.3733 19.5935 57.9828C19.2442 57.8185 18.8861 57.6739 18.5206 57.5496C17.7855 57.3243 17.3259 57.7734 17.5332 58.5199C17.7406 59.2664 18.1668 59.8642 18.6409 60.4433C21.2129 63.5896 24.5954 65.4884 28.4085 66.7187C28.6129 66.7837 28.8174 66.8501 29.0203 66.918C29.0348 66.918 29.0421 66.9526 29.0928 67.0421C27.5288 66.8268 25.9843 66.4889 24.4736 66.0314C22.3754 65.3936 20.3462 64.549 18.4162 63.5102C17.7724 63.1958 17.2735 62.6483 17.0214 61.9796C15.8616 59.073 15.0149 56.1172 15.1367 52.9535C15.2 51.0703 15.7768 49.2399 16.8054 47.6585C17.033 47.3047 17.2404 47.2585 17.6217 47.3697C19.3542 47.8435 21.1858 47.8215 22.9064 47.3062C23.0859 47.2467 23.2776 47.2334 23.4636 47.2675C23.6497 47.3015 23.824 47.3819 23.9705 47.5011C26.1062 49.01 27.6734 50.9883 28.8667 53.2885C29.1218 53.7809 29.0682 53.9339 28.4723 53.9065C26.4468 53.8104 24.4494 53.3957 22.5541 52.6777C22.396 52.6185 22.2423 52.5477 22.0857 52.4871C21.7958 52.3759 21.5363 52.4264 21.4 52.7008C21.2405 53.0257 21.4203 53.2683 21.7189 53.3939C22.6497 53.7897 23.6106 54.1113 24.5925 54.3556C28.0287 55.2089 31.4198 55.1411 34.7632 53.8978C35.7526 53.5085 36.6959 53.0117 37.5759 52.4163Z" fill="#F9CFA3"/>
<path d="M17.8101 46.2909C15.5802 45.8823 13.5055 43.6066 13.2315 41.2963C13.1039 40.2105 13.114 39.1463 13.4765 38.0936C14.0883 36.3176 15.399 35.3414 17.1344 34.8187C18.4045 34.4375 19.6934 34.0968 20.5706 32.9705C20.8605 32.5893 20.9577 33.0253 21.0374 33.1856C21.4181 33.9317 21.5238 34.7872 21.3359 35.6029C21.148 36.4185 20.6786 37.1427 20.0095 37.6489C19.763 37.8409 19.5006 38.0128 19.2469 38.1961C18.0667 39.0466 18.0754 40.1642 19.2817 41.0046C19.8311 41.3887 20.414 41.6977 20.6547 42.4139C21.0635 43.6341 20.6836 44.2651 19.3947 44.3633C18.2392 44.4456 18.0449 44.6824 17.8101 46.2909Z" fill="#F19B7B"/>
<path d="M20.0979 46.6616C19.8813 46.6811 19.6635 46.6811 19.4469 46.6616C19.2062 46.6168 18.7713 46.8305 18.7959 46.354C18.8177 45.9439 18.7133 45.4169 19.4295 45.3577C20.5285 45.2667 21.5071 44.8913 21.7203 43.6524C21.9276 42.4452 21.4709 41.4388 20.5154 40.6677C20.311 40.5031 20.0805 40.3789 19.8601 40.2201C19.2033 39.7551 19.1787 39.3985 19.8717 38.9711C20.8446 38.3689 21.6115 37.608 22.0465 36.5496C22.1416 36.3292 22.2225 36.103 22.2886 35.8723C22.5046 35.0839 22.5423 35.0652 23.26 35.5215C23.9081 35.9344 24.4706 36.4802 25.1984 36.769C25.4 36.8485 25.6073 36.9741 25.8117 36.9712C26.6294 36.964 27.0093 37.208 26.612 38.0801C26.4975 38.3285 26.7106 38.5812 26.8266 38.818C28.0619 41.3411 27.5361 43.4338 25.2492 45.0963C23.7138 46.2067 21.9667 46.6399 20.0979 46.6616Z" fill="#F9CFA4"/>
<path d="M44.3363 8.83474C45.7441 9.67079 46.4575 10.9097 46.2661 12.5298C46.0689 14.1961 45.1483 15.4177 43.5563 16.0372C42.7178 16.3771 41.795 16.4533 40.9117 16.2556C40.0284 16.0579 39.2271 15.5957 38.6153 14.9311C38.0977 14.1427 37.6975 13.3312 37.6569 12.345C37.583 10.5761 39.0821 8.39866 41.3526 8.30192C42.4254 8.25427 43.3997 8.3308 44.3363 8.83474Z" fill="#F1997B"/>
<path d="M49.769 36.5316C49.7399 36.6851 49.6626 36.8253 49.5481 36.932C49.4337 37.0387 49.2881 37.1063 49.1325 37.1251C47.4811 37.3518 45.9747 37.9424 44.493 38.7135C42.9518 39.5221 41.6006 40.5762 40.1884 41.5609C37.5149 43.4251 35.1343 45.6141 32.9479 48.0067C31.8555 49.2169 30.8775 50.5249 30.0265 51.9141C29.89 52.1062 29.7408 52.289 29.5799 52.4613C29.0348 51.8318 28.8666 51.1387 29.1522 50.3301C29.3117 49.8796 29.3784 49.3987 29.5118 48.9381C30.0265 47.1721 30.8645 45.7614 32.5782 44.7347C36.4855 42.4028 40.1652 39.7026 44.1262 37.4457C45.6065 36.6024 47.1013 35.8371 48.9005 36.1158C49.247 36.175 49.5747 36.1981 49.769 36.5316Z" fill="#F8CFA5"/>
<path d="M35.275 9.99329C35.694 9.63086 36.2043 9.71605 36.6958 9.7045C35.6084 13.1844 37.2482 16.2976 40.6031 17.125C44.2278 18.0217 47.6247 15.0803 47.1651 11.4011C46.9665 9.81279 45.9516 8.72694 44.7004 7.83746C44.5076 7.70173 44.2973 7.59055 43.9276 7.36818C45.9705 7.74216 47.5319 8.61287 48.6962 10.0597C50.3794 12.1491 49.7763 15.1006 47.3913 16.8752C43.9305 19.4469 38.5473 18.5949 36.0492 15.0673C35.0923 13.7201 34.7095 12.2935 35.6142 10.7658C35.8912 10.2893 35.5142 10.194 35.275 9.99329Z" fill="#A6C8CF"/>
<path d="M30.9095 11.8074C31.0544 12.1496 30.6934 12.1554 30.5673 12.2305C29.0914 13.0969 28.2794 14.4484 27.7358 16.0079C27.1645 17.6526 27.3776 19.2106 28.22 20.708C28.2345 20.7354 28.1939 20.7932 28.1794 20.8365C26.816 19.9763 25.6361 18.8571 24.707 17.5428C24.4693 17.2064 24.5432 16.9248 24.707 16.6115C25.5479 14.9466 26.8586 13.7452 28.4694 12.85C29.2401 12.4107 30.0588 12.0609 30.9095 11.8074Z" fill="#F8CFA4"/>
<path d="M44.3365 8.83465C43.0498 8.34858 41.6357 8.31092 40.3248 8.72779C38.5386 9.28949 37.4251 11.4626 37.9876 13.2531C38.1645 13.8221 38.4037 14.3722 38.6154 14.931C36.9626 13.3427 36.8408 10.5891 38.3385 8.87941C38.6292 8.54233 38.9892 8.27134 39.3942 8.08475C39.7991 7.89817 40.2396 7.80035 40.6858 7.79789C42.0109 7.74591 43.2491 8.03325 44.3365 8.83465Z" fill="#F6D2A5"/>
<path d="M124.137 23.762C124.137 26.1936 124.137 28.4707 124.137 30.7478C124.137 31.2287 124.137 31.7109 124.096 32.1918C124.006 33.2415 123.281 33.9245 122.252 33.9447C121.222 33.9649 120.418 33.2733 120.292 32.2206C120.271 32.0535 120.26 31.8852 120.26 31.7167C120.26 27.2405 120.26 22.7729 120.276 18.2995C120.284 16.7905 121.409 15.9184 122.822 16.2621C123.477 16.4223 123.884 16.9017 124.261 17.4057C126.484 20.3716 128.703 23.3432 130.918 26.3206C131.147 26.195 131.021 25.9828 131.022 25.8225C131.041 23.4183 131.045 21.0141 131.058 18.6099C131.055 18.3458 131.075 18.082 131.119 17.8215C131.321 16.753 132.22 16.044 133.221 16.1465C134.223 16.2491 134.918 17.0129 134.921 18.1291C134.929 20.6777 134.921 23.2263 134.921 25.7821C134.921 27.7776 134.938 29.7746 134.9 31.7687C134.868 33.3859 133.885 34.2682 132.436 34.0472C131.711 33.9361 131.257 33.4697 130.851 32.8921C129.128 30.4855 127.396 28.088 125.653 25.6997C125.198 25.0817 124.705 24.4926 124.137 23.762Z" fill="#2A444A"/>
<path d="M189.462 33.3084C187.962 34.1676 186.409 34.5965 184.686 34.0954C182.003 33.3142 180.28 30.9418 180.224 27.7969C180.192 26.0641 180.235 24.3314 180.28 22.5986C180.309 21.429 181.036 20.7215 182.12 20.7215C183.144 20.7215 183.86 21.4435 183.875 22.5986C183.902 24.2577 183.86 25.9197 183.86 27.5774C183.86 29.199 184.601 30.2689 185.917 30.5765C187.693 30.9923 189.239 29.739 189.284 27.7954C189.322 26.0887 189.284 24.3805 189.298 22.6723C189.309 21.5085 189.955 20.772 190.982 20.7114C192.046 20.6493 192.906 21.2529 192.907 22.3142C192.907 26.4468 193.197 30.5924 192.752 34.7091C192.495 37.0324 191.201 38.8229 188.92 39.6272C186.564 40.4589 184.256 40.3102 182.216 38.6886C181.413 38.0518 180.857 37.2519 181.027 36.1415C181.06 35.8149 181.195 35.5069 181.413 35.2604C181.63 35.0139 181.92 34.8414 182.241 34.7668C182.9 34.5878 183.473 34.7813 183.919 35.3257C185.005 36.6483 186.132 37.0252 187.504 36.54C188.691 36.1242 189.43 34.9127 189.462 33.3084Z" fill="#2E464A"/>
<path d="M79.5352 26.347C79.5352 24.4467 79.5192 22.5465 79.5468 20.6477C79.5468 20.1871 79.4569 20.008 78.9668 20.0354C78.1955 20.0759 77.4213 20.0456 76.6471 20.0354C75.4756 20.0354 74.6753 19.286 74.6753 18.1987C74.6753 17.1317 75.4785 16.3057 76.6123 16.2898C78.4724 16.2653 80.3326 16.2768 82.1913 16.2783C83.5686 16.2783 84.946 16.2783 86.3219 16.2985C87.5108 16.31 88.3183 17.0436 88.3372 18.1078C88.3575 19.2442 87.5919 20.0022 86.3697 20.0297C85.5738 20.047 84.7749 20.0687 83.9804 20.0297C83.4787 20.0022 83.3352 20.1365 83.3381 20.6535C83.3599 24.2128 83.3381 27.7736 83.3381 31.3387C83.351 31.6996 83.3398 32.0609 83.3048 32.4202C83.1598 33.4657 82.3624 34.0938 81.275 34.049C80.2833 34.0086 79.5526 33.2707 79.5352 32.1993C79.5091 30.2514 79.5352 28.3006 79.5352 26.3542V26.347Z" fill="#2A4548"/>
<path d="M178.681 29.6254C178.681 30.4918 178.693 31.3581 178.681 32.2245C178.661 33.3912 177.956 34.1479 176.894 34.1609C175.831 34.1738 175.142 33.4389 175.128 32.226C175.107 30.4715 175.139 28.7157 175.113 26.9613C175.083 25.0582 173.373 23.8221 171.567 24.3737C170.494 24.703 169.737 25.7282 169.721 26.9497C169.698 28.7042 169.721 30.46 169.697 32.2144C169.679 33.6324 168.466 34.4944 167.178 34.015C166.574 33.7883 166.1 33.358 166.091 32.7025C166.059 30.3517 165.83 27.9822 166.25 25.6545C166.814 22.537 169.572 20.4808 172.857 20.6007C175.812 20.7061 178.198 23.0063 178.603 26.105C178.754 27.2732 178.657 28.45 178.681 29.6254Z" fill="#2E464A"/>
<path d="M116.625 37.1992C117.728 37.2278 118.778 37.6806 119.554 38.4627C120.177 39.0908 120.513 39.8315 120.328 40.747C120.193 41.4083 119.803 41.8386 119.151 41.9599C118.498 42.0812 117.991 41.8314 117.646 41.2279C117.159 40.3846 116.464 40.1117 115.654 40.3904C115.431 40.4516 115.231 40.5788 115.083 40.7551C114.934 40.9315 114.842 41.1487 114.82 41.378C114.756 41.9094 115.1 42.1852 115.52 42.3469C115.995 42.5174 116.479 42.662 116.97 42.7801C118.732 43.2494 120.115 44.1677 120.595 46.0203C121.03 47.7141 120.625 49.223 119.29 50.4071C117.814 51.724 116.1 51.8684 114.279 51.2821C113.108 50.9038 112.325 50.0807 111.849 48.9718C111.516 48.1892 111.648 47.4123 112.181 46.904C113.051 46.0738 114.33 46.3943 114.531 47.4239C114.676 48.1314 115.166 48.4635 115.861 48.5458C116.673 48.6411 117.422 48.218 117.591 47.5625C117.767 46.8766 117.364 46.1893 116.561 45.8904C116.02 45.6897 115.455 45.5597 114.906 45.3835C112.577 44.6341 111.426 42.9433 111.774 40.7918C112.122 38.6403 113.947 37.2007 116.625 37.1992Z" fill="#2E474D"/>
<path d="M164.548 29.4788C164.548 30.4174 164.566 31.3559 164.548 32.293C164.522 33.4078 163.791 34.1456 162.758 34.1442C161.701 34.1442 160.998 33.4424 160.983 32.293C160.961 30.6094 160.983 28.9257 160.983 27.2392C160.983 25.5339 159.945 24.3311 158.407 24.2185C156.828 24.1044 155.552 25.3043 155.533 26.962C155.511 28.7409 155.533 30.5213 155.516 32.3046C155.516 33.0049 155.214 33.5681 154.579 33.8929C154.281 34.0575 153.944 34.139 153.604 34.1291C153.263 34.1192 152.931 34.0182 152.644 33.8366C152.417 33.7158 152.227 33.5372 152.093 33.3193C151.959 33.1014 151.885 32.8519 151.879 32.5963C151.879 30.3394 151.65 28.0695 152.024 25.8299C152.575 22.594 155.401 20.4223 158.718 20.6013C161.75 20.766 164.281 23.3348 164.493 26.5216C164.558 27.5034 164.503 28.4926 164.503 29.4788H164.548Z" fill="#2C464A"/>
<path d="M111.919 22.8962C110.015 20.7707 107.569 20.0545 104.828 20.9339C102.041 21.8291 100.478 23.8406 100.125 26.7415C99.9157 28.4641 100.074 30.1997 100.053 31.9296C100.032 33.7807 100.029 35.6319 100.053 37.4816C100.071 38.7812 100.865 39.6071 102.021 39.5941C103.097 39.5811 103.778 38.7754 103.787 37.4802C103.796 36.1156 103.787 34.7511 103.787 33.3115C104.589 33.7636 105.477 34.0441 106.394 34.1353C107.311 34.2264 108.237 34.1261 109.113 33.8407C109.989 33.5554 110.796 33.0913 111.482 32.4781C112.167 31.8648 112.717 31.1159 113.096 30.2792C114.274 27.6136 113.857 25.0622 111.919 22.8962ZM106.816 24.2824C108.47 24.2651 109.853 25.6802 109.86 27.397C109.869 27.8005 109.799 28.2017 109.652 28.5778C109.505 28.9539 109.285 29.2975 109.005 29.5887C108.724 29.88 108.389 30.1132 108.018 30.275C107.646 30.4369 107.247 30.5242 106.842 30.5319C105.176 30.5651 103.797 29.1514 103.797 27.4302C103.817 25.673 105.135 24.2925 106.816 24.2766V24.2824Z" fill="#28454D"/>
<path d="M150.401 27.1505C150.166 22.8302 146.588 19.9524 142.487 20.7307C139.85 21.2346 137.658 23.3298 137.106 25.8639C136.489 28.6941 137.458 31.4419 139.768 32.9711C142.129 34.5334 144.591 34.5681 147.044 33.1039C147.633 33.9948 148.271 34.2706 149.174 34.0266C149.899 33.8288 150.399 33.1602 150.415 32.1928C150.443 30.5149 150.491 28.8284 150.401 27.1505ZM140.666 27.4393C140.658 25.7066 142.044 24.2294 143.702 24.2222C145.361 24.2149 146.763 25.6661 146.789 27.3989C146.795 27.8079 146.719 28.214 146.567 28.5939C146.415 28.9738 146.188 29.3199 145.901 29.6124C145.614 29.9049 145.272 30.1381 144.894 30.2984C144.516 30.4587 144.11 30.5431 143.699 30.5467C142.034 30.5683 140.675 29.1764 140.666 27.4465V27.4393Z" fill="#2D464A"/>
<path d="M92.1676 20.6172C88.3618 20.6172 85.3389 23.5946 85.3403 27.3518C85.3403 31.2043 88.3038 34.1658 92.1546 34.1629C95.9155 34.1629 98.9819 31.1422 98.9573 27.4688C98.9283 23.7419 95.843 20.6201 92.1676 20.6172ZM89.0534 27.3807C89.0534 25.6205 90.4365 24.2372 92.1618 24.2545C93.7697 24.2718 95.1703 25.6985 95.1862 27.346C95.2022 29.0542 93.6987 30.5545 91.9966 30.5227C90.3887 30.4924 89.0461 29.0629 89.0534 27.3807Z" fill="#2A464E"/>
<path d="M137.356 46.2247V45.432C137.356 45.0465 137.474 44.6075 137.326 44.2913C137.137 43.8927 136.636 44.1815 136.279 44.1064C135.653 43.9736 135.196 43.3296 135.224 42.5787C135.248 41.8986 135.699 41.3586 136.421 41.4048C137.274 41.4597 137.365 41.0785 137.291 40.4012C137.231 39.9712 137.25 39.5339 137.346 39.1104C137.555 38.3061 138.122 37.8686 138.916 37.9177C139.269 37.9374 139.603 38.0828 139.858 38.3275C140.112 38.5722 140.269 38.8998 140.301 39.2504C140.363 39.7295 140.367 40.2144 140.313 40.6944C140.23 41.3211 140.507 41.438 141.037 41.3687C141.301 41.3381 141.567 41.3343 141.832 41.3571C142.16 41.3698 142.472 41.5017 142.709 41.7278C142.946 41.954 143.091 42.2587 143.118 42.5845C143.149 42.9356 143.048 43.2857 142.833 43.566C142.618 43.8462 142.306 44.0365 141.958 44.0992C141.79 44.1209 141.621 44.1281 141.452 44.1209C140.268 44.1209 140.268 44.1209 140.27 45.3367C140.27 46.1063 140.262 46.8759 140.279 47.647C140.299 48.4874 140.569 48.704 141.416 48.6116C141.561 48.5957 141.706 48.5581 141.851 48.5423C142.534 48.4657 143.105 48.6419 143.417 49.3018C143.551 49.6017 143.58 49.9384 143.496 50.2563C143.413 50.5742 143.223 50.8543 142.959 51.0504C142.093 51.7233 141.078 51.6309 140.112 51.4244C138.584 51.0937 137.568 49.8707 137.409 48.2477C137.343 47.582 137.397 46.9034 137.397 46.2262L137.356 46.2247Z" fill="#2E484C"/>
<path d="M147.624 47.6007C148.416 48.7054 149.497 49.0115 150.622 48.4888C150.912 48.3574 151.17 48.1827 151.453 48.0556C152.143 47.7379 152.845 47.8939 153.28 48.4426C153.657 48.9191 153.626 49.5631 153.135 50.158C152.235 51.2323 151.015 51.6323 149.655 51.6164C146.901 51.5832 144.984 49.901 144.537 47.1777C144.121 44.6305 145.445 42.3231 147.799 41.4914C150.809 40.4272 153.973 42.3577 154.29 45.4146C154.418 46.6463 153.621 47.7654 152.24 47.6354C150.731 47.4924 149.204 47.6007 147.624 47.6007Z" fill="#2D464A"/>
<path d="M128.427 46.1715C128.427 45.6675 128.395 45.1607 128.437 44.6582C128.475 44.2106 128.334 44.0546 127.883 44.1081C127.618 44.1543 127.345 44.113 127.106 43.9905C126.867 43.8679 126.674 43.6709 126.558 43.4294C126.042 42.4807 126.648 41.3703 127.753 41.3833C128.399 41.3905 128.449 41.1306 128.414 40.6368C128.386 40.2291 128.386 39.82 128.414 39.4123C128.476 38.5228 129.066 37.9438 129.883 37.9395C130.699 37.9351 131.264 38.5084 131.332 39.4181C131.332 39.4412 131.332 39.4657 131.332 39.4903C131.341 40.0679 131.148 40.7696 131.412 41.1855C131.702 41.649 132.475 41.2721 133.024 41.3833C133.665 41.5118 134.064 41.9002 134.141 42.5385C134.218 43.1767 133.957 43.7211 133.322 43.994C133.12 44.0711 132.907 44.1126 132.691 44.1167C131.316 44.1774 131.316 44.1745 131.319 45.5202C131.319 46.2422 131.296 46.9642 131.332 47.6862C131.373 48.4731 131.724 48.7345 132.51 48.6392C132.676 48.6175 132.845 48.6016 133.013 48.5857C133.938 48.4948 134.474 48.7865 134.666 49.4853C134.869 50.2203 134.489 50.9293 133.709 51.2874C131.946 52.0844 129.664 51.2441 128.847 49.4998C128.601 48.9764 128.46 48.4105 128.43 47.8335C128.399 47.2833 128.423 46.7288 128.423 46.1758L128.427 46.1715Z" fill="#2E454A"/>
<path d="M158.766 47.9835C158.766 48.6087 158.788 49.2354 158.766 49.8606C158.723 50.8887 158.07 51.5327 157.144 51.5053C156.217 51.4779 155.681 50.87 155.677 49.8173C155.669 47.5575 155.677 45.2963 155.677 43.0307C155.677 42.3752 155.924 41.8438 156.52 41.5478C157.116 41.2518 157.754 41.2258 158.243 41.7774C158.485 42.0488 158.621 41.8279 158.786 41.7485C159.587 41.351 160.492 41.2122 161.376 41.3514C162.237 41.4958 162.813 42.1846 162.74 42.9398C162.668 43.6949 162.063 44.2148 161.185 44.2581C161.016 44.2581 160.847 44.2465 160.679 44.2393C159.587 44.1989 158.916 44.7866 158.815 45.8898C158.782 46.2493 158.782 46.6117 158.775 46.9713C158.768 47.3077 158.775 47.6442 158.775 47.982L158.766 47.9835Z" fill="#2E484B"/>
<path d="M125.365 46.3533C125.365 47.5085 125.386 48.6636 125.357 49.8087C125.331 50.8411 124.754 51.4577 123.857 51.4967C123.075 51.5299 122.508 51.1256 122.316 50.3675C122.249 50.1123 122.215 49.8499 122.214 49.5863C122.214 47.5229 122.205 45.4581 122.223 43.3946C122.231 42.2799 122.624 41.6836 123.409 41.4929C124.461 41.2388 125.356 41.8973 125.389 42.9687C125.408 43.5463 125.389 44.1238 125.389 44.7014V46.3576L125.365 46.3533Z" fill="#2E484E"/>
<path d="M125.498 38.9322C125.507 39.1551 125.471 39.3777 125.393 39.5867C125.315 39.7957 125.195 39.987 125.041 40.1493C124.887 40.3116 124.702 40.4416 124.497 40.5317C124.292 40.6218 124.071 40.6701 123.847 40.6739C123.623 40.6777 123.401 40.6368 123.193 40.5536C122.985 40.4704 122.796 40.3467 122.637 40.1896C122.477 40.0326 122.351 39.8454 122.266 39.6391C122.18 39.4329 122.137 39.2116 122.139 38.9885C122.139 38.0456 122.89 37.2427 123.79 37.2269C124.69 37.211 125.481 37.9994 125.498 38.9322Z" fill="#30474B"/>
<path d="M131.628 28.9683C132.014 29.3934 132.349 29.8621 132.626 30.3646C132.829 30.8223 133.108 31.2526 133.113 31.784C133.12 32.6503 132.643 32.9579 131.851 32.5695C131.768 32.5222 131.68 32.4812 131.59 32.4467C130.141 30.4541 128.688 28.4609 127.232 26.4673C126.036 24.8212 124.715 23.2661 123.718 21.4727C123.206 20.5391 122.42 19.7834 121.465 19.3068C121.342 19.1268 121.28 18.9121 121.289 18.6945C121.317 18.205 121.494 17.7863 121.981 17.6101C122.538 17.4094 122.996 17.6376 123.286 18.1097C124.34 19.8338 125.71 21.3269 126.861 22.9831C128.146 24.8328 129.497 26.6406 130.879 28.4239C131.082 28.6616 131.339 28.8481 131.628 28.9683Z" fill="#ECC6A1"/>
<path d="M133.938 17.5533C134.133 17.7193 134.083 17.9503 134.083 18.1583C134.083 22.2668 134.079 26.3744 134.073 30.481C134.053 30.6099 134.024 30.7373 133.987 30.8622L132.366 28.3829C132.287 28.0096 132.244 27.6295 132.237 27.248C132.244 24.4958 132.237 21.7436 132.237 18.9914C132.237 18.7994 132.237 18.6074 132.252 18.4139C132.331 17.6052 132.704 17.3237 133.511 17.458C133.651 17.5 133.794 17.5319 133.938 17.5533Z" fill="#A8CDD2"/>
<path d="M122.986 21.8847C123.239 22.1129 123.296 22.4118 123.297 22.7309C123.309 25.7728 123.32 28.8147 123.331 31.8567C123.355 32.0243 123.315 32.1948 123.219 32.3346C122.999 32.3779 122.854 32.5599 122.639 32.6234C122.033 32.827 121.518 32.5368 121.402 31.9014C121.369 31.6396 121.356 31.3754 121.365 31.1116C121.286 28.3522 121.455 25.5986 121.517 22.8421C121.546 21.8443 122.024 21.5396 122.986 21.8847Z" fill="#EBC4A1"/>
<path d="M131.628 28.9684C131.461 29.0069 131.287 28.9934 131.128 28.9296C130.97 28.8657 130.835 28.7547 130.742 28.6117C129.662 27.0046 128.43 25.5086 127.335 23.9087C125.987 21.9392 124.385 20.1545 123.093 18.1329C122.997 17.9623 122.845 17.8297 122.663 17.7574C122.48 17.6851 122.278 17.6775 122.091 17.7358C121.656 17.8514 121.511 18.2152 121.466 18.6152C121.452 18.847 121.452 19.0794 121.466 19.3112C121.015 19.0715 120.905 18.1719 121.254 17.5784C121.604 16.985 122.35 16.7973 122.88 17.1756C123.129 17.3647 123.347 17.5907 123.528 17.8456C125.937 21.0589 128.34 24.277 130.736 27.4999C131.074 27.9504 131.332 28.476 131.628 28.9684Z" fill="#F0E2CB"/>
<path d="M122.986 21.8851C121.753 21.9472 121.781 21.9487 121.742 23.1573C121.652 25.9123 121.565 28.6688 121.61 31.4253C121.61 31.7618 121.45 32.1675 121.863 32.4043C122.277 32.6411 122.635 32.5083 122.961 32.1921C123.154 32.0044 123.18 32.2007 123.219 32.3365C123.103 32.9299 122.722 33.2028 122.137 33.1624C121.584 33.1292 121.267 32.7928 121.149 32.2686C121.098 32.0357 121.071 31.798 121.07 31.5596C121.07 27.736 121.07 23.9067 121.07 19.9863C121.871 20.4329 122.534 21.0897 122.986 21.8851Z" fill="#E9E3CE"/>
<path d="M133.938 17.5539C133.907 17.8282 133.781 17.8224 133.542 17.743C132.686 17.4542 132.472 17.626 132.472 18.543C132.472 21.568 132.472 24.5946 132.472 27.6197C132.472 27.8752 132.555 28.151 132.367 28.3835C131.933 27.972 131.846 27.4637 131.851 26.8847C131.875 23.9823 131.87 21.0785 131.87 18.1762C131.87 17.5986 132.127 17.1929 132.676 17.0427C133.197 16.8983 133.684 16.9618 133.938 17.5539Z" fill="#DCECEA"/>
<path d="M131.59 32.4455C131.609 32.4296 131.629 32.3978 131.645 32.4007C132.965 32.6534 133.111 32.4902 132.789 31.13C132.728 30.8759 132.679 30.6189 132.626 30.3633C133.134 30.7589 133.205 31.595 133.987 31.7278C134.026 31.735 134.051 31.9415 134.046 32.0527C134.052 32.2805 133.992 32.5052 133.873 32.7C133.755 32.8948 133.582 33.0515 133.377 33.1516C133.178 33.2657 132.949 33.3152 132.721 33.2929C132.494 33.2706 132.279 33.1777 132.106 33.0274C131.891 32.876 131.715 32.6768 131.59 32.4455Z" fill="#EBE6D7"/>
<path d="M190.334 33.6056V31.3935C189.514 32.0418 188.924 32.8374 187.983 33.1161C187.36 33.1011 186.737 33.0529 186.119 32.9717C183.364 32.553 181.189 30.0419 181.189 27.2565C181.189 25.9397 181.189 24.6218 181.189 23.303C181.189 22.0612 181.732 21.6728 182.929 22.0352C183.15 22.2547 183.066 22.5348 183.066 22.7889C183.066 24.4481 183.054 26.11 183.066 27.7677C183.079 29.5856 183.992 30.9199 185.506 31.3689C187.1 31.844 188.639 31.2058 189.635 29.6564C189.665 29.6191 189.699 29.5847 189.736 29.5539C190.239 28.8709 190.216 28.0608 190.239 27.2796C190.276 26.0566 190.248 24.8249 190.248 23.6062C190.239 23.462 190.239 23.3173 190.248 23.173C190.306 22.7009 190.292 22.1868 190.845 21.9587C191.353 21.7493 191.715 22.0208 192.081 22.324C192.233 22.5435 192.16 22.7904 192.159 23.0229C192.131 26.5245 192.114 30.0275 192.056 33.5276C192.033 34.9716 191.641 36.3202 190.655 37.4364C189.148 39.1432 187.227 39.4868 185.088 39.0955C184.299 38.7692 183.45 38.5656 182.816 37.9331C182.686 37.8272 182.566 37.7092 182.458 37.5808C182.313 37.3628 182.149 37.1289 182.333 36.8588C182.518 36.5888 182.768 36.5816 183.045 36.6278C183.503 36.7072 183.902 36.9354 184.298 37.1635C185.854 38.0645 187.988 37.8451 189.149 36.7924C190.083 35.952 190.59 34.908 190.334 33.6056Z" fill="#9CC8A7"/>
<path d="M182.925 22.037C182.864 22.3533 182.713 22.1424 182.574 22.1063C181.894 21.9302 181.36 22.2507 181.349 22.9178C181.318 24.5712 181.121 26.262 181.401 27.8692C181.85 30.4495 183.667 32.7281 186.877 32.858C187.266 32.8739 187.644 32.9042 187.983 33.1165C185.06 34.2717 181.777 32.4292 181.217 29.2279C180.824 26.9739 181.099 24.6823 181.117 22.4067C181.117 21.9634 181.418 21.65 181.865 21.5403C182.336 21.432 182.72 21.5562 182.925 22.037Z" fill="#E1EBEA"/>
<path d="M190.334 33.6054C190.75 33.6804 190.596 34.014 190.593 34.2421C190.573 36.0428 189.254 37.4521 187.404 37.7899C186.197 38.0094 185.117 37.7091 184.049 37.2297C183.719 37.0853 183.399 36.9091 183.06 36.7965C182.959 36.7501 182.846 36.7372 182.737 36.7598C182.629 36.7825 182.53 36.8394 182.457 36.9221C182.281 37.1517 182.48 37.3365 182.602 37.4997C183.119 38.1755 183.844 38.5379 184.631 38.8238C184.787 38.8801 185.09 38.7834 185.1 39.1126C184.016 38.9649 183.023 38.4284 182.307 37.6037C182.017 37.273 181.785 36.9062 181.785 36.4485C181.785 36.0543 181.954 35.7525 182.348 35.6182C182.684 35.5027 183.013 35.4522 183.242 35.8175C184.27 37.4549 185.807 37.8982 187.566 37.4318C189.346 36.9597 190.061 35.5374 190.321 33.8321C190.31 33.7469 190.322 33.6761 190.334 33.6054Z" fill="#E2EBE7"/>
<path d="M192.079 22.3269C192.039 22.3485 191.984 22.3991 191.957 22.3875C190.798 21.872 190.348 22.1507 190.331 23.4373C190.31 24.9 190.313 26.3642 190.318 27.8283C190.298 28.3554 190.194 28.876 190.01 29.3705C189.974 29.4817 189.949 29.6853 189.73 29.5553C190.099 28.65 190.118 27.6955 190.122 26.7382C190.131 25.352 190.136 23.9658 190.149 22.581C190.149 22.0121 190.4 21.5702 190.995 21.5139C191.553 21.4591 191.968 21.732 192.079 22.3269Z" fill="#DDE9E1"/>
<path d="M82.4538 20.3216C82.5538 24.3531 82.5046 28.3861 82.4538 32.4191C82.1406 32.8147 81.7492 33.0111 81.2519 32.8162C80.6719 32.5895 80.5139 32.1043 80.5139 31.5368C80.5139 28.493 80.5139 25.4491 80.5139 22.4052C80.5139 21.9013 80.5139 21.3945 80.5139 20.8949C80.5139 20.3953 80.7372 20.1224 81.2649 20.1729C81.6622 20.2075 82.0855 20.0545 82.4538 20.3216Z" fill="#F59B7B"/>
<path d="M83.1656 18.8662C81.9985 17.5291 80.8763 17.5392 79.7397 18.8951C78.7654 19.1319 77.7751 19.0193 76.7965 18.9702C76.3122 18.9471 76.0498 18.5298 76.0716 18.0417C76.0977 17.5263 76.4195 17.2822 76.9415 17.2822C79.9794 17.2822 83.0168 17.2822 86.0537 17.2822C86.4234 17.2822 86.725 17.3833 86.8758 17.7428C87.0208 18.0764 86.854 18.3493 86.6641 18.6092C86.5032 18.8273 86.293 19.028 86.0204 19.0424C85.0649 19.0655 84.0993 19.1088 83.1656 18.8662Z" fill="#EE9979"/>
<path d="M83.1656 18.8668C83.9876 18.8668 84.8097 18.8509 85.6303 18.8957C86.1537 18.9246 86.4364 18.6704 86.6452 18.2575C86.8975 17.7737 86.6452 17.433 85.9971 17.4243C84.6923 17.4084 83.3874 17.4243 82.0825 17.4243C80.4399 17.4243 78.7972 17.4243 77.1531 17.4243C76.6848 17.4243 76.2136 17.469 76.2208 18.0567C76.2281 18.6444 76.6297 18.8711 77.1966 18.8697C78.0418 18.8697 78.8871 18.8841 79.7323 18.8942C79.7077 19.2639 79.4221 19.196 79.1959 19.1975C78.326 19.2061 77.4561 19.2191 76.5862 19.1975C75.8613 19.1787 75.4944 18.8293 75.4872 18.2315C75.4785 17.5586 75.883 17.1355 76.6297 17.1254C77.9345 17.1081 79.2394 17.1341 80.537 17.1326C82.4421 17.1326 84.3486 17.1196 86.2537 17.1124C87.0236 17.1124 87.489 17.4647 87.5296 18.0813C87.5745 18.7672 87.1599 19.2249 86.3697 19.2364C85.4302 19.2567 84.4849 19.196 83.5498 19.1787C83.3294 19.1816 83.1873 19.105 83.1656 18.8668Z" fill="#EADFCD"/>
<path d="M82.4538 20.3214C80.7299 20.2608 80.7299 20.2608 80.7299 21.9517C80.7299 25.0417 80.7328 28.1313 80.7386 31.2204C80.7386 32.6976 81.1083 32.9532 82.4509 32.4189C82.3306 33.0051 81.9333 33.2939 81.3722 33.2593C80.772 33.2203 80.4226 32.8261 80.3443 32.2326C80.3129 31.9449 80.2998 31.6556 80.3051 31.3662C80.3051 27.8358 80.3051 24.3068 80.2776 20.7777C80.2776 20.2002 80.3965 19.9374 81.0214 20.0197C81.4074 20.0488 81.7952 20.0488 82.1812 20.0197C82.3842 20.0283 82.5045 20.0904 82.4538 20.3214Z" fill="#E5E1C3"/>
<path d="M82.4334 19.2173H80.6704C81.0952 18.6007 81.6433 18.5646 82.4334 19.2173Z" fill="#BBB49B"/>
<path d="M175.977 32.4586C175.967 30.658 175.966 28.8487 175.942 27.0539C175.915 24.9659 174.359 23.3545 172.392 23.3559C170.424 23.3574 168.934 24.9298 168.883 27.0914C168.844 28.726 168.87 30.3606 168.858 32.0009C168.858 32.2565 168.938 32.5351 168.728 32.759C168.56 32.9174 168.343 33.0155 168.113 33.0374C167.883 33.0594 167.652 33.0041 167.456 32.8803C167.039 32.6492 166.968 32.2752 166.971 31.8392C166.982 30.3736 166.932 28.9065 166.987 27.4438C167.066 25.3342 168.062 23.74 169.937 22.7423C171.677 21.8181 173.417 21.9062 175.113 22.878C176.853 23.8758 177.694 25.4049 177.701 27.3947C177.701 28.9079 177.691 30.427 177.701 31.933C177.701 32.4601 177.614 32.9077 177.053 33.0795C176.492 33.2514 176.215 32.8817 175.977 32.4586Z" fill="#9DC4A6"/>
<path d="M175.977 32.4601C176.312 32.6536 176.537 33.1055 177.037 32.9077C177.423 32.7532 177.562 32.463 177.559 32.0558C177.547 30.4227 177.588 28.7881 177.544 27.1564C177.485 24.9587 175.829 23.021 173.617 22.4751C171.473 21.9481 169.096 22.9083 167.997 24.7783C167.426 25.7443 167.077 26.7637 167.117 27.916C167.162 29.1881 167.117 30.4617 167.117 31.7338C167.117 32.7445 167.567 33.0478 168.54 32.7099C168.59 32.6926 168.663 32.7388 168.724 32.7547C168.548 33.3192 168.105 33.3842 167.622 33.2947C167.402 33.2638 167.201 33.1526 167.058 32.9827C166.915 32.8128 166.841 32.5963 166.849 32.3749C166.849 30.2624 166.62 28.1297 167.001 26.0417C167.417 23.7588 168.774 22.143 171.081 21.5655C173.292 21.0038 175.17 21.6867 176.653 23.4195C177.375 24.2691 177.784 25.3389 177.813 26.4518C177.888 28.3968 177.856 30.3505 177.846 32.294C177.846 32.8485 177.617 33.3048 176.976 33.3337C176.412 33.3568 176.019 33.0853 175.977 32.4601Z" fill="#E3ECE9"/>
<path d="M119.254 49.1766C117.772 51.266 114.201 51.2819 112.867 49.1968C112.577 48.7506 112.318 48.2799 112.577 47.7182C112.722 47.4106 112.956 47.2114 113.302 47.2186C113.625 47.2186 113.699 47.49 113.801 47.7485C114.362 49.1694 115.57 49.7079 116.991 49.2011C117.788 48.9123 118.287 48.3651 118.391 47.5334C118.501 46.6569 118.194 45.932 117.43 45.4324C116.896 45.083 116.277 44.966 115.683 44.7797C114.998 44.566 114.305 44.3581 113.753 43.8643C113.715 43.7249 113.636 43.6002 113.525 43.5062C112.09 42.0622 112.569 39.4631 114.771 38.6444C116.567 37.9773 118.12 38.4451 119.428 39.7995C119.586 39.9439 119.565 40.1475 119.565 40.3381C119.565 40.7381 119.407 41.0298 118.999 41.1439C118.59 41.2579 118.382 41.0067 118.219 40.6876C117.794 39.8573 117.101 39.479 116.177 39.479C115.281 39.479 114.574 39.827 114.208 40.6587C113.862 41.4471 113.96 42.1965 114.621 42.816C115.171 43.4166 115.954 43.5293 116.669 43.7762C117.013 43.8842 117.349 44.0139 117.676 44.1646C119.503 45.0642 120.27 46.6988 119.365 48.7636C119.287 48.8869 119.248 49.0308 119.254 49.1766Z" fill="#EBC29C"/>
<path d="M119.436 39.8072C119.403 39.9213 119.414 40.057 119.239 39.8751C117.97 38.5597 116.265 38.1351 114.66 38.8802C112.81 39.7394 112.223 41.9443 113.654 43.446C113.763 43.5601 113.924 43.6756 113.762 43.8647C112.694 43.0142 112.312 41.7797 112.7 40.4628C112.905 39.8191 113.296 39.2502 113.825 38.828C114.354 38.4057 114.997 38.1491 115.672 38.0904C117.122 37.9647 118.476 38.1626 119.339 39.543C119.381 39.6274 119.413 39.716 119.436 39.8072Z" fill="#F3E2C7"/>
<path d="M119.254 49.1759C119.1 48.6229 119.53 48.2012 119.583 47.6857C119.761 45.901 118.858 44.9336 117.425 44.2708C116.555 43.8708 115.583 43.7307 114.801 43.1373C114.697 43.0579 114.511 43.0218 114.63 42.8225C115.298 43.2138 116.038 43.4001 116.78 43.595C118.965 44.1726 120.089 45.6411 119.886 47.6063C119.834 48.18 119.615 48.7259 119.254 49.1759Z" fill="#F2EAD8"/>
<path d="M161.879 32.7648C161.664 32.541 161.762 32.2608 161.76 32.0082C161.749 30.3245 161.77 28.6409 161.746 26.9543C161.748 26.2153 161.524 25.4932 161.101 24.8856C160.679 24.278 160.079 23.8142 159.384 23.5567C158.743 23.3309 158.049 23.2995 157.39 23.4666C156.731 23.6337 156.137 23.9917 155.682 24.4953C155.106 25.0924 154.775 25.8824 154.753 26.7103C154.711 28.417 154.723 30.1252 154.695 31.832C154.695 32.18 154.785 32.554 154.505 32.863C154.218 32.9159 153.926 32.9338 153.635 32.9164C153.192 32.8789 152.874 32.655 152.873 32.206C152.873 30.2177 152.604 28.2062 152.987 26.2453C153.731 22.4319 158.557 20.8247 161.541 23.3112C162.919 24.4664 163.541 25.9103 163.555 27.6633C163.567 29.0553 163.567 30.4477 163.555 31.8407C163.551 33.0348 162.939 33.3655 161.879 32.7648Z" fill="#ADCED3"/>
<path d="M161.879 32.7653C162.024 32.5819 162.121 32.7653 162.243 32.8071C162.968 33.0396 163.348 32.7768 163.351 32.0231C163.351 30.4593 163.362 28.8955 163.351 27.3317C163.336 25.3794 162.002 23.381 160.136 22.698C158.12 21.9602 156.242 22.3298 154.618 23.7463C153.524 24.7008 153.052 25.9484 153.058 27.388C153.064 28.8276 153.058 30.2759 153.058 31.7198C153.058 32.7306 153.109 32.7739 154.127 32.7306C154.272 32.7234 154.47 32.5862 154.508 32.875C154.272 33.3457 153.837 33.4078 153.402 33.2923C153.186 33.2403 152.994 33.1162 152.859 32.9407C152.724 32.7653 152.653 32.5489 152.658 32.3278C152.667 30.2152 152.448 28.0883 152.803 25.9931C153.255 23.3305 155.629 21.3725 158.238 21.4057C159.542 21.4169 160.8 21.8891 161.787 22.7381C162.773 23.5871 163.425 24.7576 163.626 26.0408C163.978 28.1388 163.722 30.2629 163.754 32.3754C163.771 32.5965 163.703 32.8159 163.564 32.989C163.424 33.1622 163.224 33.2763 163.004 33.3082C162.518 33.3847 162.086 33.2923 161.879 32.7653Z" fill="#E1EAEB"/>
<path d="M108.494 22.2522C105.622 21.2905 102.719 23.1186 101.721 25.608C101.286 26.6851 101.286 27.8288 101.259 28.9449C101.196 31.5441 101.238 34.1432 101.241 36.7423C101.218 37.0552 101.257 37.3694 101.354 37.6679C101.516 38.0751 101.776 38.3638 102.256 38.3898C102.76 38.4086 102.788 38.0029 102.908 37.678C103.073 37.4657 102.999 37.2188 103.001 36.9878C103.011 35.3907 103.001 33.7937 103.022 32.1982C103.022 31.9541 102.93 31.6798 103.167 31.4242L104.017 32.1722C105.24 32.8758 106.692 33.0708 108.058 32.7151C110.32 32.1722 112.168 30.0091 112.246 27.7609C112.333 25.2455 110.783 23.0189 108.494 22.2522ZM106.815 24.2737C108.47 24.2564 109.853 25.6715 109.86 27.3883C109.869 27.7918 109.798 28.1931 109.652 28.5692C109.505 28.9453 109.285 29.2888 109.004 29.58C108.724 29.8713 108.388 30.1045 108.017 30.2664C107.646 30.4282 107.246 30.5155 106.841 30.5232C105.176 30.5564 103.797 29.1428 103.797 27.4216C103.817 25.6729 105.135 24.2925 106.815 24.2766V24.2737Z" fill="#F19C7D"/>
<path d="M104.011 32.1586C104.522 32.2799 105.026 32.3969 105.542 32.5225C108.419 33.2344 111.463 31.3139 111.955 28.3466C112.58 24.5692 109.345 21.7203 106.164 22.282C103.44 22.7671 101.731 24.8017 101.571 27.5524C101.389 30.6973 101.519 33.8423 101.468 36.9872C101.458 37.1068 101.458 37.2271 101.468 37.3468C101.529 37.7395 101.639 38.0976 102.102 38.2059C102.564 38.3142 102.706 37.9446 102.902 37.6601C102.986 38.2954 102.722 38.6911 102.077 38.7792C101.515 38.8571 101.026 38.46 100.894 37.8464C100.873 37.7282 100.865 37.6082 100.869 37.4883C100.869 34.0704 100.832 30.654 100.896 27.2362C100.954 24.0927 103.505 21.5586 106.666 21.381C109.612 21.2163 112.404 23.6422 112.851 26.7568C113.27 29.6678 111.269 32.5413 108.287 33.2069C106.717 33.5636 105.215 33.4105 104.011 32.1586Z" fill="#F5E5C9"/>
<path d="M149.571 28.0936C149.533 28.0373 149.511 27.9712 149.509 27.903C149.508 27.8756 149.508 27.8481 149.509 27.8207C149.524 25.8338 148.639 24.3047 147.044 23.1856C145.102 21.824 143.03 21.7128 140.985 22.8867C139.024 24.0144 138.142 25.815 138.399 28.0445C138.663 30.3245 139.975 31.8537 142.169 32.6132C143.312 33.0103 144.488 32.9641 145.667 32.8644C146.537 32.6045 146.953 31.7584 147.671 31.2761C147.866 31.6472 147.804 32.0139 147.803 32.3619C147.803 32.967 148.035 33.3525 148.673 33.3265C149.279 33.3034 149.574 32.9164 149.579 32.3331C149.584 30.9194 149.574 29.5072 149.571 28.0936ZM143.7 30.5483C142.034 30.5584 140.675 29.1665 140.667 27.4366C140.658 25.7068 142.044 24.2267 143.702 24.2195C145.361 24.2123 146.763 25.6634 146.789 27.3962C146.797 27.8063 146.722 28.2138 146.571 28.5952C146.419 28.9766 146.193 29.3243 145.906 29.6182C145.619 29.9121 145.276 30.1463 144.897 30.3075C144.518 30.4686 144.111 30.5534 143.7 30.557V30.5483Z" fill="#A9CDD2"/>
<path d="M149.571 28.0947C149.309 27.3568 149.268 26.5626 148.957 25.832C147.46 22.3246 143.311 21.2027 140.327 23.5737C138.754 24.8241 138.023 27.1503 138.929 29.3986C139.725 31.371 141.706 32.6821 143.898 32.7341C144.485 32.7485 145.094 32.5724 145.663 32.8655C142.857 34.269 138.993 32.4727 138.002 29.3033C136.939 25.91 138.925 22.4517 142.438 21.5738C145.645 20.7724 148.857 22.9412 149.525 26.3706C149.618 26.9406 149.634 27.5205 149.571 28.0947Z" fill="#E1ECEC"/>
<path d="M92.1415 21.4524C88.8953 21.4524 86.1174 24.1497 86.1116 27.3148C86.1114 28.1035 86.2675 28.8844 86.571 29.6128C86.8744 30.3412 87.3193 31.0028 87.88 31.5597C88.4407 32.1165 89.1063 32.5577 89.8386 32.8578C90.5709 33.1579 91.3554 33.3112 92.1473 33.3087C95.4674 33.3087 98.1206 30.7096 98.1206 27.4506C98.1206 24.2176 95.3688 21.4524 92.1415 21.4524ZM95.1861 27.3452C95.2021 29.0534 93.6986 30.5536 91.9965 30.5219C90.3814 30.4915 89.0388 29.062 89.0461 27.3798C89.0461 25.6196 90.4292 24.2363 92.1545 24.2537C93.7696 24.2724 95.1702 25.7034 95.1861 27.3466V27.3452Z" fill="#F4E4C8"/>
<path d="M139.461 45.8943C139.486 46.4517 139.412 47.2227 139.551 47.9866C139.762 49.1417 140.542 49.6876 141.694 49.4175C142.122 49.3165 142.564 49.1764 142.686 49.7381C142.808 50.2998 142.419 50.5467 141.92 50.6695C139.924 51.159 138.188 49.8695 138.136 47.8191C138.103 46.5195 138.101 45.22 138.136 43.9204C138.151 43.3977 137.972 43.2417 137.481 43.288C137.171 43.3154 136.855 43.2706 136.54 43.2764C136.475 43.2827 136.409 43.2759 136.346 43.2564C136.283 43.2369 136.225 43.205 136.175 43.1628C136.125 43.1205 136.084 43.0686 136.055 43.0103C136.025 42.9519 136.008 42.8882 136.004 42.823C135.987 42.7521 135.985 42.6786 135.997 42.6069C136.01 42.5352 136.036 42.4667 136.076 42.4054C136.115 42.3442 136.167 42.2914 136.227 42.2503C136.287 42.2092 136.355 42.1805 136.427 42.166C136.569 42.1336 136.716 42.119 136.862 42.1227C138.096 42.0779 138.096 42.0779 138.103 40.8708C138.103 40.3899 138.103 39.9091 138.103 39.4268C138.103 38.9445 138.349 38.676 138.799 38.6817C139.248 38.6875 139.496 38.9705 139.502 39.4326C139.511 40.1055 139.564 40.7813 139.515 41.4541C139.474 42.0245 139.692 42.1617 140.214 42.1126C140.692 42.0693 141.179 42.1126 141.664 42.0895C142.099 42.0736 142.3 42.3104 142.319 42.6887C142.341 43.0901 142.1 43.3038 141.691 43.3096C141.111 43.3096 140.531 43.3371 139.951 43.3096C139.567 43.2952 139.444 43.4425 139.458 43.8136C139.483 44.433 139.461 45.0597 139.461 45.8943Z" fill="#ACCED4"/>
<path d="M153.086 44.2373C153.366 44.568 153.393 44.9896 153.457 45.3838C153.624 46.4047 153.209 46.861 152.172 46.8624C150.482 46.8624 148.79 46.8841 147.098 46.8624C146.633 46.8552 146.589 47.0068 146.691 47.3967C147.189 49.2969 149.654 50.1691 151.33 49.0211C151.774 48.7193 152.262 48.2342 152.664 48.9042C153.019 49.4976 152.431 49.8803 151.996 50.1503C149.511 51.6867 145.929 50.4579 145.397 47.4472C145.45 47.2881 145.456 47.117 145.413 46.9548C145.087 44.8929 146.248 43.3449 148.181 42.5161C149.808 41.8172 152.042 42.6605 152.839 43.9904C152.905 44.0843 152.952 44.2041 153.086 44.2373Z" fill="#A7CCD1"/>
<path d="M153.086 44.2376C152.698 44.2852 152.633 43.9083 152.449 43.7221C149.944 41.2053 146.579 42.7835 145.597 45.3234C145.49 45.6007 145.549 45.94 145.514 46.2475C145.47 46.6461 145.644 47.0634 145.404 47.4431C145.387 47.3175 145.371 47.1933 145.355 47.0677C145.268 46.5205 145.274 45.9627 145.371 45.4173C145.674 43.6109 147.144 42.2651 149.083 42.0182C150.757 41.8117 152.432 42.733 153.086 44.2376Z" fill="#D6E8E8"/>
<path d="M145.371 45.4219C145.371 45.972 145.361 46.5222 145.355 47.0723C145.173 46.5361 145.179 45.9545 145.371 45.4219Z" fill="#A7CCD1"/>
<path d="M129.189 45.765C129.189 45.1398 129.168 44.5145 129.197 43.8878C129.218 43.4547 129.104 43.2554 128.637 43.3103C128.347 43.3406 128.057 43.2929 127.767 43.3103C127.354 43.329 127.197 43.072 127.17 42.7327C127.142 42.3934 127.337 42.1941 127.669 42.1306C127.738 42.1176 127.814 42.1161 127.883 42.1089C129.155 41.9876 129.153 41.9876 129.155 40.6649C129.155 40.2563 129.155 39.8477 129.168 39.4405C129.189 38.9539 129.474 38.6535 129.948 38.6896C130.383 38.7228 130.603 39.0174 130.586 39.4896C130.561 40.1624 130.607 40.8368 130.573 41.5111C130.551 41.9616 130.66 42.1623 131.153 42.1204C131.68 42.0742 132.214 42.1204 132.747 42.106C133.171 42.0959 133.378 42.2879 133.381 42.7038C133.384 43.1197 133.168 43.3088 132.749 43.303C132.195 43.2929 131.638 43.3233 131.084 43.303C130.69 43.2843 130.531 43.3911 130.542 43.8214C130.577 45.069 130.542 46.3195 130.581 47.5757C130.632 49.1121 131.538 49.7633 133.046 49.3821C133.426 49.2868 133.8 49.2103 133.916 49.7012C134.025 50.1618 133.822 50.5228 133.345 50.6311C131.35 51.0903 129.42 50.3106 129.214 47.8674C129.156 47.1757 129.205 46.4754 129.205 45.7794L129.189 45.765Z" fill="#A7CCD0"/>
<path d="M157.551 42.2567C158.063 42.4733 157.79 42.9787 157.961 43.3743C158.251 43.2949 158.421 43.0638 158.623 42.8848C159.33 42.2567 160.165 42.0285 161.087 42.069C161.586 42.0906 161.977 42.3014 161.957 42.8184C161.937 43.3353 161.531 43.4797 161.021 43.4552C158.934 43.3555 157.976 44.2623 157.961 46.3431C157.961 47.2571 157.961 48.1697 157.961 49.0866C157.961 49.3263 157.961 49.5674 157.961 49.8086C157.961 50.1941 157.872 50.5392 157.466 50.6749C157.299 50.7487 157.11 50.7549 156.939 50.692C156.768 50.6292 156.628 50.5024 156.549 50.3385C156.487 48.0282 156.526 45.7178 156.529 43.4075C156.548 42.6639 156.832 42.3765 157.551 42.2567Z" fill="#A9CBD1"/>
<path d="M157.551 42.2563C156.852 42.5249 156.648 43.0245 156.667 43.7652C156.717 45.7016 156.687 47.6379 156.678 49.5743C156.678 49.8269 156.774 50.1042 156.567 50.3294C156.467 50.1645 156.417 49.9746 156.422 49.7822C156.432 47.5816 156.422 45.3796 156.457 43.1804C156.472 42.3458 156.847 42.0686 157.551 42.2563Z" fill="#E9F4F6"/>
<path d="M124.524 42.8331C124.714 43.6591 124.585 44.4951 124.589 45.3254C124.596 46.7852 124.56 48.245 124.535 49.7049C124.535 50.0861 124.551 50.4933 124.054 50.6232C123.387 50.603 123.175 50.2579 123.184 49.6125C123.217 47.627 123.184 45.6402 123.197 43.6533C123.204 42.6786 123.622 42.4216 124.524 42.8331Z" fill="#97C3A5"/>
<path d="M124.524 42.8327C123.338 42.8327 123.335 42.8327 123.332 44.008C123.332 45.8317 123.357 47.6569 123.307 49.4792C123.291 50.0928 123.438 50.4769 124.054 50.6228C123.474 50.7672 123.052 50.5578 123.039 49.9557C123.012 47.6598 123.03 45.3625 123.046 43.0651C123.046 42.6522 123.238 42.3056 123.694 42.2406C124.151 42.1756 124.44 42.372 124.524 42.8327Z" fill="#E4EADE"/>
<path d="M124.659 38.7794C124.84 39.2126 124.669 39.5346 124.314 39.7541C123.999 39.9476 123.647 40.0587 123.333 39.7165C123.2 39.3714 122.913 39.0552 123.203 38.6494C123.597 38.095 124.079 38.1325 124.659 38.7794Z" fill="#9EC09D"/>
<path d="M124.659 38.779C124.327 38.5956 124.072 38.2014 123.587 38.5104C123.054 38.844 123.273 39.2844 123.334 39.7147C122.936 39.4158 122.81 39.0302 123.015 38.5739C123.075 38.4146 123.185 38.2788 123.329 38.1865C123.473 38.0942 123.643 38.0503 123.813 38.0613C124.276 38.0772 124.58 38.2982 124.659 38.779Z" fill="#D2E1D6"/>
<path d="M106.862 23.4488C104.618 23.4849 102.973 25.1816 103.005 27.4342C103.037 29.7892 104.674 31.4209 106.961 31.3834C109.019 31.3487 110.746 29.5192 110.719 27.4009C110.688 25.2061 108.944 23.4142 106.862 23.4488ZM106.845 30.5242C105.179 30.5574 103.8 29.1438 103.8 27.4226C103.81 25.6711 105.131 24.2907 106.811 24.2748C108.465 24.2575 109.849 25.6725 109.856 27.3894C109.865 27.7923 109.795 28.1932 109.649 28.569C109.502 28.9448 109.283 29.2882 109.003 29.5795C108.724 29.8708 108.389 30.1043 108.018 30.2667C107.648 30.429 107.249 30.517 106.845 30.5257V30.5242Z" fill="#2D464D"/>
<path d="M143.782 23.3839C141.623 23.3998 139.875 25.183 139.867 27.3706C139.867 29.7041 141.539 31.3993 143.844 31.3949C145.918 31.3949 147.614 29.616 147.607 27.4443C147.602 25.2061 145.877 23.3694 143.782 23.3839ZM143.699 30.5574C142.033 30.5675 140.675 29.1756 140.666 27.4457C140.658 25.7159 142.044 24.2358 143.702 24.2286C145.361 24.2214 146.763 25.6725 146.789 27.4053C146.795 27.8147 146.72 28.2213 146.568 28.6016C146.416 28.982 146.19 29.3287 145.903 29.6217C145.616 29.9146 145.273 30.1481 144.895 30.3087C144.517 30.4693 144.11 30.5539 143.699 30.5574Z" fill="#2D464A"/>
<path d="M97.2739 27.3914C97.1753 24.5367 94.8846 22.1932 92.0066 22.2091C89.5709 22.2264 87.0424 24.4183 87.0264 27.5012C87.0119 30.3068 89.7652 32.6503 92.1197 32.4582C94.7715 32.6979 97.3638 29.979 97.2739 27.3914ZM89.0533 27.3799C89.0533 25.6197 90.4365 24.2364 92.1618 24.2537C93.7696 24.271 95.1702 25.6977 95.1861 27.3452C95.2021 29.0534 93.6986 30.5537 91.9965 30.5219C90.3886 30.4916 89.0461 29.0621 89.0533 27.3799Z" fill="#EE9678"/>
<path d="M149.351 45.6649C148.626 45.6649 147.901 45.6649 147.176 45.6649C146.78 45.6649 146.609 45.5985 146.783 45.1278C147.201 44 148.281 43.1741 149.467 43.1582C150.564 43.1438 151.61 43.8224 151.977 44.7884C152.259 45.5321 152.166 45.6837 151.375 45.6996C150.701 45.7126 150.024 45.6996 149.345 45.6996L149.351 45.6649Z" fill="#31474D"/>
<path d="M92.0734 23.4471C89.932 23.4471 88.2646 25.1293 88.2472 27.3097C88.2284 29.6056 89.8421 31.3051 92.0618 31.3181C93.7624 31.5029 95.9763 29.8481 96.03 27.4714C96.0357 26.9484 95.9379 26.4293 95.7421 25.9439C95.5464 25.4586 95.2565 25.0164 94.889 24.6427C94.5216 24.2689 94.0838 23.971 93.6007 23.7658C93.1175 23.5607 92.5985 23.4524 92.0734 23.4471ZM92.0067 30.5225C90.3916 30.4921 89.049 29.0626 89.0562 27.3804C89.0562 25.6202 90.4394 24.2369 92.1647 24.2543C93.7726 24.2716 95.1731 25.6982 95.1891 27.3458C95.2021 29.054 93.6986 30.5485 92.0038 30.5225H92.0067Z" fill="#2C484D"/>
<path d="M147.772 44.9488C148.878 43.6493 150.461 43.6709 151.134 44.9488H147.772Z" fill="#DBE7EC"/>
</svg>
